<?xml version="1.0" encoding="UTF-8"?>
<!DOCTYPE svg PUBLIC "-//W3C//DTD SVG 1.1//EN" "http://www.w3.org/Graphics/SVG/1.1/DTD/svg11.dtd">
<!-- Creator: CorelDRAW SE -->
<svg xmlns="http://www.w3.org/2000/svg" xml:space="preserve" width="316.436mm" height="422.223mm" version="1.1" style="shape-rendering:geometricPrecision; text-rendering:geometricPrecision; image-rendering:optimizeQuality; fill-rule:evenodd; clip-rule:evenodd"
viewBox="0 0 20274 27052"
 xmlns:xlink="http://www.w3.org/1999/xlink">
 <defs>
  <style type="text/css">
   <![CDATA[
    .fil0 {fill:#1F1F1F}
   ]]>
  </style>
 </defs>
 <g id="Vrstva_x0020_1">
  <metadata id="CorelCorpID_0Corel-Layer"/>
  <path class="fil0" d="M12909 8259c-27,101 -52,81 -83,166l102 -74c-52,270 -75,235 -212,261l110 -187 -90 56c48,-90 56,-179 173,-222zm-298 44l-25 43c-47,89 -117,189 -124,262 78,-17 203,-191 259,-267 39,-52 37,-51 92,-105 -17,40 -27,71 -55,119 -25,42 -33,58 -58,108 -40,76 -47,46 -82,152 -2,6 -7,24 -9,29 -18,48 -6,19 -19,42 -105,-8 -170,-55 -229,-85 15,-48 163,-254 225,-289l25 -9zm1323 -245c46,44 27,7 -35,124 -19,37 -37,108 -93,50 -39,-40 12,-71 41,-99l78 -67c2,-2 7,-6 9,-8zm-204 -238c-59,99 -84,169 -129,252l-99 -10c33,-143 185,-212 200,-311 -28,15 -8,0 -42,30 -27,24 -16,20 -48,42 4,-37 70,-215 161,-235 1,90 -35,90 -73,144 91,68 21,35 61,95l21 -52c1,-4 4,-9 6,-12 22,-47 7,-50 60,-89 23,40 7,-46 24,60 3,23 2,72 4,100l-143 98c-4,1 -10,4 -14,6 28,-51 27,-55 11,-118zm-228 4c23,-15 27,-15 52,-40 27,-25 20,-20 41,-50 28,24 -32,67 -80,156 -63,116 -42,107 -104,135 -36,-71 37,-144 94,-181l-7 -15c-28,-2 -52,96 -137,117 -3,-80 20,-80 52,-155l10 -28c42,-100 25,-50 62,-61l19 -112c107,-55 34,-101 182,-94 1,73 -11,108 -56,164 -44,54 -61,89 -128,54 16,58 30,51 0,110zm-1570 -278c0,0 169,-295 258,-326 42,110 -20,133 -81,196l-138 135c-2,2 -6,7 -8,9 -2,2 -5,6 -8,9l-23 -23zm1425 130c6,-78 64,-137 126,-160 -20,73 -74,122 -126,160zm-1390 -48c39,-91 144,-202 224,-245 -15,110 -107,232 -224,245zm-125 -7c-58,-107 67,-200 128,-235 -7,51 -91,191 -128,235zm49 -250c17,-84 74,-148 131,-208 25,-26 -1,-15 29,-28 4,-2 9,-4 12,-4l43 10c7,26 29,-36 4,38 -4,13 -13,23 -21,33 -14,18 -37,36 -56,54 -50,49 -77,74 -142,105zm2213 -261c37,-74 77,-125 155,-136 -19,131 19,2 -29,186l-9 71 -117 -121zm-2246 112c9,-101 54,-205 149,-166 -21,69 -91,138 -149,166zm2109 -192c-18,-43 -36,-54 76,-143l69 -40 -19 68c-55,190 -111,121 -126,115zm132 -21l107 -200c34,48 34,-54 34,70 0,50 -7,38 -31,65 -47,50 -65,57 -110,65zm-1142 -332c44,-52 28,-55 89,-100 76,15 85,28 114,79 -30,52 -7,20 -52,62l-173 136c14,-11 6,-2 30,-24 48,-43 128,-139 130,-204 -76,23 -181,174 -183,169 -1,-3 -4,13 -7,10l-27 -25 79 -103zm-39 434c-80,-25 52,43 -24,-15 -25,-20 -5,-16 -23,-21 -1,0 -24,-38 -22,36 5,144 92,-64 37,136 -60,-21 -89,-49 -112,-153l21 -15c2,-2 8,-6 10,-8 105,-83 180,-231 298,-290 -14,93 -124,284 -185,330zm400 -491l-51 1c88,-106 158,-237 227,-374 50,-101 136,-331 228,-398 -45,266 -380,657 -402,753 57,-46 7,-30 72,-57 -21,95 -46,60 -55,147 41,-26 93,-131 124,-184 42,-73 68,-133 107,-204l158 -298c33,-64 39,-69 88,-82 38,87 1,33 8,120 122,-32 163,86 232,229 -69,56 -402,90 -364,603 17,227 222,194 390,332 45,38 91,82 133,119 -14,211 -158,537 -292,608 67,-353 -4,-375 -181,-495 -66,-45 -88,-70 -182,-34 -458,177 -260,478 -290,637 53,22 43,11 97,45 41,25 56,40 111,52 96,21 177,-13 265,-24 -70,134 -520,374 -719,405 -4,-87 -3,-157 -26,-233 -27,-85 -59,-166 -122,-219 -3,-3 -7,-6 -10,-8 -190,-161 58,-76 -182,-203l467 -898c33,-44 73,-90 96,-121 3,-3 6,-8 8,-11 46,-62 59,-65 84,-136 -61,37 -87,78 -129,147l-5 -22c0,-2 -1,-9 -2,-11 -5,-65 2,-35 30,-60 35,-31 56,-83 87,-126zm548 276c-38,-72 85,-188 147,-222 -15,52 -36,75 -65,118 -40,59 -35,69 -82,104zm91 -20c14,-78 57,-104 98,-175 63,-110 56,-118 129,-141l29 115c-41,49 -194,170 -256,201zm365 -89c-21,-30 2,25 -22,-34l-32 -244c74,50 56,150 54,278zm-293 -203c10,-61 39,-134 74,-160 73,61 -22,129 -74,160zm-243 209c-50,-191 57,-399 250,-398 -57,117 -21,126 -89,232 -69,105 -84,136 -161,166zm-1635 -336c45,-100 86,-119 150,-198 47,-58 135,-125 202,-153 -9,116 -86,133 -158,196 -59,52 -115,133 -194,155zm2094 -202c12,-93 55,-133 137,-155 -17,70 -36,91 -74,137 26,70 38,32 18,77 -54,16 -52,-8 -81,-59zm-1950 -142c13,-46 26,-45 50,-77 -28,-132 -162,-224 -238,-319 -37,-45 -42,-95 -94,-58 -10,13 -30,-28 -9,51l90 204c47,96 99,181 135,268 -45,99 -147,180 -213,319l-164 352c-2,4 -6,10 -10,15 -30,-12 -68,-27 -98,-40 37,-31 93,-26 93,-93 -74,-30 -173,-1 -265,-25 -74,-19 -139,-69 -194,-17 47,138 274,182 391,246 30,-30 -5,-9 22,-25 41,-24 0,-11 55,-16 -15,167 -108,389 -165,542 5,4 18,11 21,13l32 24c-28,77 1,125 -4,237 -80,53 -332,144 -457,214l33 82c63,-18 49,-33 96,-62l199 -93c44,-18 69,-26 116,-33 10,148 38,498 167,537 92,28 101,71 165,133 26,25 11,4 29,26 87,106 -38,112 150,159 95,24 274,136 359,121 63,-10 -42,-10 75,-26 37,-4 84,1 124,-9 119,-28 229,-117 353,-140l36 323c72,-12 57,-37 101,-83l-55 -313c163,-62 394,-267 500,-289l221 305c34,-70 -15,-36 45,-104 -52,-52 -72,-104 -127,-155 39,-129 132,-227 196,-347 60,-110 134,-238 177,-353l398 35c73,11 46,31 124,33 -11,-90 -8,-40 -35,-68 -3,-3 -9,-8 -11,-10 -3,-3 -8,-7 -12,-11l23 -67 -436 1c50,-278 96,-274 106,-616 155,-1 388,-73 509,-38l38 -63 -66 -37c-54,-27 -124,-20 -185,-16l-281 23 -30 -336c26,-136 201,-149 160,-546 -8,-83 -34,-110 -42,-213 61,-39 87,-80 141,-131 51,-48 96,-66 98,-157 -98,-6 -198,166 -282,212l-22 -18c-93,-88 -163,-181 -285,-241l-135 -72c37,-70 58,-62 61,-165 -153,40 -69,157 -293,183 -352,40 -475,317 -586,399 -43,32 -317,111 -382,110 2,-155 33,-435 -44,-553 -87,27 -66,167 -62,281 4,104 3,241 55,311 -255,115 -267,173 -422,256l-40 20zm1867 47c8,-93 163,-236 193,-248 -19,59 -56,93 -89,140 -42,60 -38,90 -104,108zm-1370 -196c13,-66 14,-67 87,-72 -32,46 -28,51 -87,72zm1327 -71c26,-92 43,-84 96,-146 71,-84 29,-91 131,-118 -15,82 -63,101 -170,206 -14,14 -14,13 -28,28l-29 30zm-873 674c-54,-18 -69,-40 -122,-60 -119,-45 -57,0 -115,-88 -148,109 -150,95 -272,257 -53,69 -84,63 -76,147 13,132 35,117 -13,216 96,72 18,-30 82,154 31,90 64,90 97,156 -148,387 -558,909 -622,1098 102,-25 70,-48 194,-213l118 -190c0,0 23,-33 23,-34 27,-28 2,-6 38,-28 24,78 -64,174 -146,285 -51,70 -135,220 -188,263 -215,-113 -433,-497 -416,-703 60,53 19,70 106,126 -14,-71 -38,-70 -47,-166l31 -17c279,-119 496,-455 272,-695 -88,-93 -109,-108 -205,-157 -44,-23 -19,-8 -42,-25 25,-160 117,-285 203,-371l382 -330c89,-53 93,2 372,-30 108,-13 85,-38 144,-74 60,-37 63,1 110,-105 35,-77 4,-60 74,-80 32,56 22,47 4,133 73,-106 -49,-186 367,-186 -15,83 -248,581 -335,696 -2,3 -7,8 -8,11 -2,2 -6,7 -10,10zm825 -498c0,-88 42,-104 94,-153 45,-43 79,-97 117,-131 -9,33 -143,267 -211,284zm-862 -233c39,-72 183,-77 239,-35 -37,15 -86,25 -130,35 -152,31 -82,16 -109,0zm424 -130c33,-56 109,-137 177,-161 -19,54 -46,70 -81,117 -41,56 -41,72 -96,44zm198 -87c27,-47 48,-74 86,-114l95 -105c57,9 43,11 88,22l-69 68c45,17 31,13 77,45l68 -64c56,23 77,47 105,91l-284 271c34,-134 170,-167 197,-308 -96,20 -16,26 -109,52l-4 -20c-9,-25 0,-10 -18,-36l-215 263c-93,-59 -27,-83 39,-146 40,-39 38,-37 78,-67l66 -81c-48,14 -66,28 -103,61 -48,43 -33,50 -97,68zm-334 -7c-60,-20 -29,-46 -86,4 -38,33 -25,43 -87,52 10,-63 68,-105 108,-139 61,-52 66,-68 159,-92l-104 111c-19,24 -7,8 -22,33l79 -49c66,-50 134,-118 214,-128l-61 45c4,4 10,8 11,11l27 45c-67,76 -139,158 -210,161 13,-50 27,-51 65,-88 16,-16 20,-21 37,-37l29 -23c1,-5 13,-4 10,-7l-56 13c-1,0 -37,25 -44,30 -34,25 -44,30 -69,58z"/>
  <path class="fil0" d="M6466 8645c20,-54 10,-42 68,-55 -16,57 -4,47 -68,55zm2874 13c53,-28 174,-97 208,-138 7,14 14,132 90,-37 258,-575 136,-610 -158,-813 -108,-75 -200,-123 -373,-137 -43,-192 -177,-619 -170,-731 -54,-50 -70,-114 -100,-208 -57,-174 -238,-622 -241,-738 117,-17 163,-16 181,-128l-412 15c-154,-25 -81,-25 -109,10 -64,91 183,86 256,112 90,99 83,305 122,447 33,121 132,336 128,455 -227,65 -519,68 -786,74 -140,3 -249,38 -400,43 -141,5 -291,9 -421,12 -30,-146 -101,-247 -116,-404 21,-16 3,-14 43,-25 7,-2 36,-3 46,-4 26,-128 63,-63 75,-144 -303,-11 -341,-43 -620,5 -86,14 -123,-3 -110,104 83,39 290,21 432,79 161,462 259,317 -108,811 -50,67 -231,329 -297,368 -65,-29 -23,-10 -70,-48 -76,-60 -227,-56 -323,-39 -273,45 -473,287 -498,516 -33,298 110,513 347,652 189,111 225,48 394,-4 204,-64 180,-49 281,-224 220,-382 -38,-319 282,-451 57,-24 106,-48 173,-65 46,-12 167,-19 182,-45 28,-47 -41,-8 47,-86l42 -40 69 59c29,-94 15,-76 166,-128 96,-33 41,-42 161,-129 119,-87 221,-146 357,-227l335 -248c87,-62 238,-203 371,-232l168 625c-169,55 -291,198 -395,335 -138,182 -49,368 27,555 36,87 67,184 141,220l283 98c119,29 279,-20 380,-60 70,-27 131,-74 143,-149 -60,28 -47,39 -94,70 -138,91 -127,18 -129,17zm-3249 -951c-14,141 -202,190 -140,502 64,322 71,236 223,432l-2 -16c-19,-38 -70,-95 -98,-118l56 -45c-58,-42 -80,-49 -95,-136 127,47 66,58 155,112l78 -37c3,4 6,10 7,13 1,4 4,10 5,14 12,45 0,-16 6,32 3,19 0,37 5,55l22 -168c77,-32 155,-93 247,-107 -3,120 -39,167 -83,252 -49,95 -67,110 -192,123l75 34c-68,26 -188,25 -280,17 -289,-27 -400,-324 -368,-426 54,12 32,-12 65,33 53,73 -47,-4 102,154 2,-109 -5,-10 -34,-109 -67,-229 -86,-579 246,-611zm426 866c20,-100 49,-116 80,-194 60,-153 -4,-159 85,-192 23,39 17,-46 16,52l-52 168c-13,29 -25,63 -44,101 -28,59 -29,54 -85,65zm-183 -400c5,-172 28,-138 148,-259l12 26c34,66 5,20 62,43l7 140c-67,21 -144,43 -229,50zm312 -165c46,39 47,29 17,87 -31,-37 -39,-43 -17,-87zm2297 608c-130,-34 -240,-377 -220,-462 25,-103 234,-325 314,-369 26,99 63,154 73,259 -81,83 -130,138 9,260 -43,101 -84,261 -176,312zm315 -332c15,-79 -27,-168 -10,-297 -35,-19 -81,12 -86,-163 186,-72 296,187 198,433 -62,155 -182,380 -368,375 25,-129 129,-199 146,-317l120 -31zm-3239 -51c-4,-105 1,-254 45,-334 17,-33 52,-92 80,-105l76 -17c50,-23 70,-6 181,17 -29,133 -73,108 -158,263 -68,123 -22,-6 -196,156l-28 20zm3329 -569c72,46 129,74 174,146l23 -36c104,82 192,122 158,336 -21,125 -63,273 -157,350 41,-127 82,-75 112,-326 13,-112 26,-113 -68,-282 -14,-27 -12,-17 -27,-33 -13,20 -39,-38 -10,66 32,114 115,285 -24,483 9,-96 82,-218 2,-421 -18,30 -32,11 -12,125 8,45 15,49 7,111 -29,216 -117,436 -366,442 31,-98 380,-377 243,-697 -65,-153 -105,-112 -127,-193 127,34 155,148 233,216 27,-60 22,-13 -15,-75 -72,-121 -135,-176 -146,-212zm-623 414c-1,-72 54,-231 93,-270l88 -94c76,-84 202,-51 69,68 -107,96 -186,253 -250,296zm-1528 -1071c240,-33 1149,-111 1364,-95 -66,116 -541,406 -602,474 44,-11 36,-7 76,-33l69 -21c-58,41 -177,172 -213,132l68 -78c-167,58 -399,353 -539,373 -42,-117 -85,-241 -124,-368 -26,-86 -92,-313 -99,-384zm-80 142c-63,63 -181,260 -216,365 72,-98 160,-266 219,-294 12,18 14,5 20,40 6,30 4,23 -2,49l-105 208c-50,78 -105,149 -142,246l203 -311c42,-68 18,-58 85,-90l113 344c31,58 33,36 47,99 -84,43 -527,250 -603,254 -30,-54 -53,-81 -78,-126 57,-150 196,-283 243,-419 -91,91 -189,326 -282,389 -38,-53 -35,-21 -53,-98l269 -374c56,-125 146,-204 248,-372 9,12 20,-10 34,90z"/>
  <path class="fil0" d="M17653 6831c19,16 31,4 65,96l92 372c-48,-42 -93,-119 -111,-191 -16,-63 -45,-227 -46,-277zm665 -263c-4,-3 -8,-14 -9,-11 -7,16 -15,-18 -18,-21 -14,-18 -11,-15 -24,-32 -66,-77 -285,-250 -363,-295 -62,-35 -136,-16 17,112 87,72 184,129 267,226 47,53 35,70 87,86l42 5c12,200 14,1154 -40,1274 -32,-30 -35,-52 -63,-87 -159,-196 -168,-221 -280,-456 -20,-42 -39,-64 -60,-122l-73 -301 67 49c4,3 9,5 13,7 172,97 273,336 367,299 46,-19 16,-6 43,-31 -11,-103 -205,-291 -272,-388l-80 60c-55,-84 -52,-53 -138,-94 -39,-262 -63,-425 -62,-720 1,-146 25,-498 129,-615 32,-36 -13,-1 37,-32 78,139 71,13 67,295 23,-44 3,-16 17,-64 11,-35 14,-43 31,-78 45,22 50,26 84,67 351,415 236,124 214,867zm-275 -1370c96,-98 297,-343 434,-344 -25,31 -16,20 -33,52 5,0 12,-2 15,-3 4,-1 11,-2 15,-3 131,-23 193,71 288,170 71,73 177,184 193,293 -41,-29 -29,-30 -75,-55 16,93 35,42 64,158 16,66 11,122 28,191 59,248 56,563 15,811 -12,68 -24,110 -37,182 -27,149 -32,116 -77,143 3,-163 43,-293 42,-483 0,-134 -13,-340 -89,-396 -10,16 -27,-30 -10,42 11,52 73,47 73,372l-17 554c-25,69 -33,37 -46,140 54,-39 23,-4 49,-61 9,-20 23,-55 31,-77l101 -335c7,-49 24,-141 31,-189 36,-240 7,-384 -1,-616 -10,-289 -38,-112 18,-174 43,120 26,186 58,290 46,153 -42,859 -94,1024 -89,288 -353,884 -600,930l-3 -438c53,-40 91,-61 120,-113 94,-162 251,-235 227,-417 -79,-4 -69,34 -100,84l-240 310 -2 -529 62 -51c19,-20 31,-42 47,-63 36,-47 59,-81 95,-123 57,-66 153,-159 142,-269 -94,20 -246,315 -345,380 -6,-96 -9,-291 2,-383 24,-193 -8,-75 55,-218 59,-132 95,-178 191,-287 61,-70 119,-97 113,-236 -89,12 -201,288 -326,349l-12 -193c-18,6 -44,-10 -80,84 -13,34 -23,100 -29,137 -52,-25 -100,-94 -149,-164l-69 -68c-137,-131 -35,-106 -71,-206l-41 78 -49 -32c-24,-15 -25,-15 -44,-25 9,-37 29,-98 61,-103 130,-23 70,-75 181,-139 -6,63 -5,39 -22,92l49 -44c1,-1 24,-44 31,-55l57 -74c4,-4 16,-13 21,-16 3,-2 7,-5 11,-8l58 -33c3,-2 7,-5 10,-7 39,-32 40,-63 74,-128 -182,45 -237,169 -346,275l-28 27c-1,-3 -6,12 -12,12l-15 -22zm18 201c45,-27 70,-79 64,-132l-64 132zm703 1703c19,-15 27,-12 41,-29 28,-32 10,5 20,-52l-61 81zm-487 919l-21 950c73,-16 25,-16 94,-35 2,63 -5,66 20,108 63,-51 20,-73 38,-253 30,-300 3,-578 14,-884 129,-94 216,-150 315,-280l215 -387c30,-69 59,-132 92,-200l131 -468c32,-141 72,-675 26,-840 -20,-75 -54,-146 -66,-225 -29,-179 -64,-323 -215,-384 -61,-24 -40,-14 -83,-64 -37,-46 -41,-43 -84,-80 -67,-58 -80,-88 -162,-147 -93,-67 -121,-73 -219,-16 -211,120 -206,170 -248,189 -50,22 -30,-26 -92,36 -98,100 -131,266 -229,373 -82,88 -31,88 -82,209 -111,260 -96,87 -137,467 -10,99 -43,131 -47,256 -5,213 11,369 40,564 27,180 81,301 155,441 78,150 149,241 252,347 104,107 187,229 293,323z"/>
  <path class="fil0" d="M1375 23835c-161,-55 -521,-157 -693,-167 6,-66 64,-127 108,-166 93,-83 245,-300 410,-465 109,-109 208,-162 324,-260 66,-56 95,-84 161,-131 75,-53 72,-88 176,-127 -21,74 -5,39 -43,80 -14,15 -37,31 -57,51l-328 328c-78,83 -348,379 -358,498 29,-91 77,-135 134,-210 185,-245 688,-765 921,-923 159,-108 273,-204 453,-300 -18,69 -44,102 -73,134l-37 37c-33,32 -40,46 -94,52l49 -87c-63,3 -49,8 -91,62 -227,295 -1135,1101 -1156,1296l201 -262c96,-124 343,-364 464,-485 91,-91 153,-179 208,-167 54,13 -43,10 51,17 27,-31 59,-68 109,-84 -14,77 -83,150 -128,216 -141,208 -281,439 -454,642 -3,3 -137,118 -17,141 20,4 49,3 70,2 174,-5 164,-17 331,53 122,51 231,121 355,176 -14,79 -31,101 -102,174 -26,27 -36,37 -61,67 -47,55 -26,43 -91,69 6,-84 44,-132 -21,-161 -28,54 -6,144 -30,219 -18,57 -51,92 -81,123l-104 76c11,-82 83,-318 64,-367 -28,48 -71,251 -90,323 -24,87 -28,149 -98,215 -50,48 -15,23 -78,47 3,-103 25,-169 46,-256 21,-83 54,-199 -3,-241 -28,62 -12,210 -27,276 -85,367 32,215 -169,402 -6,-132 114,-589 87,-638 -52,89 -100,447 -121,578 -20,121 -14,92 -69,172 -36,-37 -41,-2 -23,-123 7,-47 4,-97 10,-143 15,-114 53,-72 48,-247 -67,9 -59,54 -74,231 -10,119 -23,194 -39,309 -13,89 -192,252 -301,396l-379 460c-46,69 43,120 -148,309l355 -955c20,-46 28,-113 42,-161l235 -547c108,-246 212,-238 226,-558zm136 1160c-15,88 -3,45 -104,145l-564 621c-33,45 -67,94 -102,136l-138 133 97 -154c187,-281 179,-362 526,-663 45,-39 108,-64 136,-99 26,-32 3,-58 149,-119zm-462 -1178c97,-1 90,4 199,51 42,19 17,7 35,20 -74,42 -197,-22 -234,-71zm-502 -161c14,-45 8,-28 28,-58 0,0 24,-30 32,-41 57,-80 178,-209 267,-239 -28,105 -139,185 -210,276 -46,59 -21,57 -117,62zm1667 -1100c19,-58 28,-51 78,-95 -18,44 5,17 -26,59 -52,74 8,6 -52,36zm144 -295l0 0zm21 206c13,-61 36,-84 69,-133 39,-57 42,-74 117,-92 -43,82 -111,182 -186,225zm160 -455c16,-77 31,-84 103,-99 -14,73 16,31 -33,71l-38 18c-4,2 -13,9 -16,5 -2,-5 -10,3 -16,5zm-807 1410c14,-122 98,-137 211,-332 164,-285 490,-573 669,-864 50,-81 49,-157 121,-228 68,-68 106,-117 47,-203 -30,10 -25,9 -50,20l-343 186c-121,82 -273,238 -407,287 -93,33 -1105,938 -1230,1065l-258 243c34,128 22,108 67,140 39,28 458,122 637,201 27,12 26,13 41,24 -23,180 -46,216 -129,223 -37,237 -404,1095 -530,1475l-310 695c-129,233 -92,225 -155,354 -29,61 -145,266 -105,344 56,-28 139,-226 172,-293 148,-304 363,-575 574,-847l99 -138c111,-158 427,-469 573,-615 44,-44 72,-78 116,-121 35,-33 73,-48 79,-120 -47,-22 -68,-8 -125,5 24,-79 30,-70 83,-122l174 -190c43,-44 32,-46 110,-52 4,-98 93,-183 172,-220l1 112c20,-51 41,-177 66,-220l343 -387c44,-48 35,-17 37,-102 -155,-117 -372,-223 -582,-235 1,-65 -3,-38 15,-88l-183 3z"/>
  <g id="_1550319392">
   <path class="fil0" d="M17032 12188c17,-92 39,-118 101,-153 -8,45 -6,42 -26,84 -37,75 -18,48 -75,69zm2797 -205c47,37 144,192 18,238 -38,-58 -13,-36 -23,-129 -7,-61 -31,-59 5,-109zm-131 -168c60,24 89,63 95,132 -54,-11 -37,6 -71,-42 -32,-45 -21,-29 -24,-90zm-107 -89c67,18 56,5 74,72 -87,-22 -42,-17 -74,-72zm-437 -336c73,40 439,417 462,500 4,124 -19,144 -39,236 41,-35 57,-96 79,-152 14,9 61,15 68,80 6,65 -12,68 -38,92l63 16c1,0 5,0 8,1 -2,113 -144,83 -210,45 -97,-56 -253,-206 -313,-300 -128,-200 -216,-69 -118,-435l38 -83zm-1102 159c7,-69 3,-60 28,-112 36,-72 -5,-30 58,-63 2,126 9,142 -86,175zm-193 121c71,-95 -17,-56 115,-213 32,-38 13,-42 85,-95 -6,57 -37,122 -57,195 -26,94 -58,86 -107,148 -68,-20 29,28 -25,-8 -7,-5 -13,-11 -17,-16 -95,201 -123,145 -293,310 -84,82 -236,206 -396,210 1,-165 352,-479 498,-619 61,-58 163,-141 243,-156 -22,73 -37,148 -46,244zm1143 -352c54,-57 34,-22 72,-22 25,51 3,79 -1,174 -2,29 -3,81 -8,109 -1,4 -10,42 -12,46 -37,92 35,-29 -26,35 -54,-30 -94,-84 -114,-153l89 -189zm-727 -127c107,90 55,169 -81,227l81 -227zm1168 366c-115,-85 -209,-181 -302,-283 84,22 278,207 302,283zm-590 -79c-48,-68 -63,-56 -27,-166 28,-84 19,-96 73,-153 94,32 91,70 56,164l-60 124c-35,41 8,-2 -42,31zm-100 -132c-131,-73 24,-249 88,-256 38,66 16,64 -20,137 -12,26 -18,45 -27,64l-41 55zm-286 -191c-20,-93 -9,-102 23,-165 93,9 183,63 187,149 -44,-11 -97,-67 -180,-15 59,24 24,-21 71,34 -50,23 -54,23 -101,-3zm53 -351c9,-43 54,-47 80,-57 -2,124 -11,88 -29,112 -125,-48 -53,-45 -51,-55zm-27 -59c19,-87 60,-127 119,-153l-4 56c-2,5 -4,10 -6,14l-15 22c-39,50 -69,53 -94,61zm4 -86c-10,-117 49,-191 130,-214l8 106 -138 108zm251 -246l-37 -83 41 -42c-58,-91 -22,-148 -23,-350 0,-21 1,-50 -1,-70 -14,-225 18,-512 -102,-535 -111,13 -107,88 -168,183 -38,-58 -7,-49 -60,-61 -32,105 8,237 -21,344 -19,68 -50,249 -38,320 14,79 44,15 31,143l-45 507c77,-24 49,-124 69,-224l29 -79c4,388 69,312 -220,582l-423 379c-291,224 -210,181 -430,372 -64,55 -383,285 -383,382 0,62 24,56 174,98 47,13 114,-18 161,-37 168,-67 160,-89 269,-185 87,-77 166,-111 245,-192 199,-202 130,13 178,-109 26,-66 -4,-32 37,-95 43,43 28,-35 37,83 4,55 -25,29 10,84 84,-157 -52,-141 216,-379 113,-100 91,-113 181,-135 135,-34 165,-29 177,111 100,0 55,-11 111,54l251 292c-6,62 -51,316 -42,344l66 -287c101,38 171,156 231,244 -4,2 -10,1 -11,5l-43 7c95,71 308,252 449,240l197 -41c114,-27 135,-161 63,-291 -99,-179 -506,-576 -670,-730l-266 -189c-52,-34 -77,-71 -130,-108 -19,-13 -45,-33 -70,-35l-71 8c-81,-4 -34,-195 -27,-271 15,-164 59,-108 87,-188l-49 -15c12,-31 8,-19 20,-51zm-238 -784c29,-162 33,-142 79,-169 75,36 77,91 78,205 2,120 3,472 -31,576 -33,100 -2,-18 -7,142 -56,50 -57,75 -135,107 33,-140 66,-114 113,-206 -50,54 -44,67 -112,98l15 -753z"/>
   <path class="fil0" d="M18702 13755c35,-73 5,-17 35,-46 8,106 11,202 22,296 21,182 12,174 -159,173l102 -423zm-643 377c-105,53 -74,-11 -115,84l-11 25c-60,3 -123,4 -182,9 -58,5 -102,3 -128,47 46,26 36,11 91,14 131,7 -8,37 346,38 155,1 349,4 477,-16 256,-40 405,59 552,-47 93,-66 231,-17 238,-128 -77,-49 -333,0 -456,5 -35,-219 -16,-485 -16,-723 0,-153 -25,-330 -36,-492 -15,-221 -43,-140 -69,-456 -19,-248 -27,-490 -78,-722 -23,-102 -9,-143 -99,-168 -23,54 79,510 92,614 30,238 24,463 37,714 14,272 56,385 0,675 -17,87 -37,67 -40,115 -8,109 -70,356 -100,458l-234 -20c27,-200 105,-420 112,-608l17 -111c7,-41 12,-62 17,-109 28,-329 91,-558 66,-935 -75,5 -36,60 -34,150 8,429 -111,1204 -204,1595l-159 -2 158 -1424c14,-99 42,-144 48,-259 11,-204 33,-388 42,-603 74,102 22,627 25,804 0,6 3,36 4,41 15,66 11,34 22,52 1,-340 8,-263 29,-533 12,-143 -43,-102 -30,-235 10,-118 49,-133 -50,-199 0,-71 23,-135 -3,-196 -26,5 -37,-35 -75,101 -21,73 8,62 1,144l-140 969c-37,175 -71,768 -112,985 -30,156 3,217 -3,347z"/>
  </g>
  <g id="_1550319008">
   <path class="fil0" d="M8915 684c83,-51 140,-109 266,-153l-6 80c1,2 3,7 5,10 39,-80 98,-149 174,-191l25 -13c23,-11 34,-15 58,-32 66,-47 34,-50 144,-62 74,203 17,43 44,205 -189,211 -142,369 -410,674l-199 165c103,-218 172,-468 311,-670l16 -22c20,-31 4,0 21,-34 28,-58 -3,-34 50,-96 3,-3 7,-6 9,-9 3,-3 7,-6 10,-9l79 -86c3,-3 8,-5 11,-7l46 -21c-84,-52 -79,-24 -127,48 -18,26 -32,39 -47,66 -14,24 -26,57 -43,83l-228 444c-31,63 -99,306 -157,375l-62 48c-38,20 -11,9 -59,22 1,-233 305,-766 316,-877 -159,195 -184,526 -317,648 1,-6 7,-32 8,-37l37 -262c28,-137 58,-139 25,-287zm-644 976c7,-38 66,-169 86,-201l39 108c41,-86 -32,-37 78,-302 39,-94 91,-192 159,-242 10,171 -28,327 -35,492 -5,131 -7,134 -112,165 -98,28 -136,45 -215,-20zm355 -31c-2,-171 23,-363 48,-527 23,-143 76,-296 217,-357l-78 492c-44,246 -23,332 -123,373 -51,21 -4,4 -64,19zm-480 122l50 119c51,-58 -11,-19 171,-39 78,-8 130,-19 198,-28 3,82 -9,67 32,110 33,-58 -86,-167 200,-169 46,-71 21,-45 92,-84 59,-31 64,-46 117,-83 135,-92 89,42 233,-149 178,-236 277,-331 486,-484l293 -286c240,-288 162,-240 262,-500 -40,32 -9,131 -114,280 -134,191 -463,544 -642,621 23,-50 92,-127 126,-186 35,-64 78,-172 91,-213 39,-126 128,-397 41,-515 -64,17 -102,62 -303,101 -299,57 -518,269 -725,496 -201,220 -530,652 -608,1009z"/>
   <path class="fil0" d="M8925 3103l103 202c-3,-222 -112,-209 -80,-378l11 -96c-5,-37 -7,-26 -16,-43l-40 108c-21,-30 -20,-28 -31,-67 -1,-5 -2,-10 -3,-15 -28,-109 -21,-275 11,-304 41,-15 -48,-26 41,-8l131 87c33,26 130,109 155,139 74,87 387,628 433,736 52,122 83,335 87,494 4,2 10,1 11,7 2,5 9,5 11,7l76 40c-31,-107 -33,-256 -52,-376 -22,-143 -43,-216 -100,-317 -196,-347 -402,-714 -718,-958 -281,-216 -496,-133 -577,-150 -55,-11 -18,-11 -73,-36 -33,22 -54,53 -89,87 -6,204 30,484 76,654 129,473 305,461 462,647 86,103 272,664 544,419 -1,0 -145,70 -215,33 -66,-77 -211,-195 -218,-339l633 298c95,16 21,4 50,-13l-1 -13c-24,-42 -21,-5 -27,-75 -90,-9 -65,6 -104,-45l156 -4c1,-10 3,-27 3,-28l-6 -26c-32,-120 -324,172 -507,-461 -8,8 -83,-57 49,190 41,76 88,105 103,183 -105,0 -282,-108 -366,-154l34 -268c4,-15 12,-47 15,-59 14,-66 2,-59 28,-98zm-128 335c-65,-41 -56,-64 -85,-147 -29,-82 -31,-60 -16,-159 16,-105 58,-251 91,-333 204,182 21,630 19,624 -2,-3 -5,10 -9,15zm-308 -538c-54,-14 24,39 -49,6 -51,-23 -83,-162 -94,-215 -24,-114 -35,-250 -28,-375l114 18c13,85 27,201 48,285 42,160 12,108 8,263 89,-103 61,-18 97,105 21,73 52,151 57,248 -119,-61 -156,-203 -153,-335zm156 173c-81,-351 -119,-256 -47,-424 34,-80 34,-130 95,-178 54,-43 106,-35 157,-7 -20,95 -96,261 -136,458 -31,153 -27,118 -69,151zm-103 -439c-57,-69 -46,-175 -40,-286l155 39 -80 200c-3,5 -13,21 -16,24 -2,3 -8,15 -9,12 -2,-3 -7,8 -10,11zm-32 -336c23,-15 -33,-9 50,-18 69,-8 129,7 164,55 -51,18 -162,-7 -214,-37z"/>
   <path class="fil0" d="M6154 3575l64 -155c152,46 118,37 144,82 -28,49 2,35 -78,59 -34,11 -79,15 -130,14zm617 15c138,-46 208,-186 353,-220 -24,78 -19,36 -58,94 68,-19 48,-19 107,-90 153,-184 253,-177 401,-383 6,-8 29,-41 30,-42 41,-45 4,-13 50,-39 -17,212 -230,543 -364,679 186,-54 375,-585 454,-793 27,-70 32,-130 59,-196 39,-93 65,-78 43,-301 -12,-125 -63,-96 -124,-107 -110,-19 -4,-5 -92,-38 -87,-12 -464,165 -546,203 -232,106 -707,521 -800,726 -64,139 -186,469 -249,510 21,113 -8,115 -54,227 60,20 63,-8 84,-41l55 -109c2,-3 5,-9 6,-12 1,-2 4,-8 5,-12 106,26 58,58 186,18l18 56c42,-71 16,-74 161,-116l108 -34c4,-2 9,-4 14,-6l82 -25c-8,63 -40,102 -92,144 88,-8 68,-25 118,-47 49,-21 12,-5 56,-16 -38,-24 -4,-6 -38,-15l-43 -12c42,-81 73,-123 201,-129l-131 126zm658 -653c8,-90 92,-216 132,-323 44,-114 62,-232 96,-341 111,14 130,56 94,181 -54,189 -150,392 -322,483zm-504 355c17,-91 59,-129 102,-209 74,-138 280,-394 303,-593 -59,12 -68,57 -85,111 -55,179 -354,683 -404,732 -54,53 3,13 -75,38 -121,39 -194,78 -272,46 -23,-56 19,-82 50,-142l207 -477c-124,119 -144,380 -301,615 -77,-9 -121,-31 -169,-75 12,-96 146,-326 200,-384l310 -274c119,-91 609,-357 792,-387 -11,182 -104,486 -189,626 -51,84 -271,253 -376,334l-93 39z"/>
   <path class="fil0" d="M7011 1403c-22,-39 -76,-63 -118,-90 -128,-84 -259,-168 -344,-305 -74,-121 -220,-461 -222,-631 142,10 260,24 293,126 40,123 25,222 117,282 -25,-112 -145,-323 -15,-295 28,6 30,10 51,20 421,197 824,955 836,1221 -148,-30 -749,-246 -782,-392 -2,-9 -7,-10 -10,-15l68 26c70,27 -15,-8 43,17 38,16 48,24 83,36zm-274 -618c4,39 30,97 51,132 137,223 317,526 549,649 -126,-144 -112,-61 -326,-364l-206 -321c-19,-27 -19,-28 -37,-54l-23 -32c-1,-6 -5,-7 -8,-10zm-333 449c135,73 101,124 292,228 206,113 688,281 912,367 122,47 65,-18 150,83 37,-18 71,-45 142,-31 25,4 45,20 68,25 87,21 53,-2 65,-8 -90,-31 -253,-47 -301,-121 -68,-106 -167,-636 -583,-1094 -86,-94 -135,-110 -236,-183 -83,-61 -312,-160 -424,-193l-138 -44c-4,-2 -11,-5 -14,-6 -3,-2 -9,-4 -14,-6l-21 -85c-46,41 -24,15 -47,80 -80,-2 -278,-55 -331,0 -38,49 17,45 47,103 21,39 36,117 54,166 39,108 86,191 132,286 47,98 90,181 140,280 53,107 92,184 142,278 -6,-52 -23,-95 -35,-125zm376 157c-87,-21 -139,-59 -193,-110 -50,-47 -107,-101 -130,-171 77,20 281,207 323,281zm-324 -488c33,64 86,146 103,212 -137,-54 -463,-532 -487,-775 143,5 173,3 211,118l173 445z"/>
  </g>
  <g id="_1550303744">
   <path class="fil0" d="M3651 1255c-68,-24 -117,-100 -170,-150 -59,-55 -140,-96 -173,-156 87,20 141,80 197,133 62,60 116,79 146,173zm-1233 -561c99,38 91,-95 557,129 157,76 725,552 801,661 66,93 137,444 133,597 -53,-19 -98,-75 -101,-117 -61,-7 -56,4 -85,-8 0,0 -109,-83 -76,40 27,101 87,42 143,170 129,297 62,75 175,217 114,-83 0,-47 266,-257 59,-47 82,-76 132,-122 26,-24 41,-42 73,-57 89,-39 50,25 93,-50 -108,-141 -348,168 -438,201 -15,-185 -82,-441 -186,-579 -214,-282 -189,-536 -741,-807 -120,-58 -494,-128 -658,-122 -89,119 -71,0 -88,104z"/>
   <path class="fil0" d="M429 2263c24,44 35,288 37,345 6,153 53,186 50,326 -123,-115 -131,-571 -87,-671zm1263 -1460c-23,16 -2,12 -42,22l-114 1c13,-19 25,-41 78,-46 103,-10 66,15 78,23zm-550 -112c120,-62 -3,-38 253,-33 78,2 97,3 146,36 -27,40 -93,82 -143,114 -244,157 -156,54 -425,340 -157,168 -325,380 -423,594 -53,116 -87,262 -130,381 -79,216 -86,647 59,837 115,152 46,80 93,163 33,58 86,99 146,51 -62,-34 -63,-29 -97,-123 -42,-114 -97,-472 -114,-596 -43,-308 50,-542 154,-761 109,-229 434,-605 662,-725 164,-86 168,-75 363,-112 3,193 -198,514 -194,615 53,-53 68,-11 110,-150 67,-218 212,-384 186,-623 -86,-49 -229,-103 -343,-120 -130,-19 -338,-13 -303,112z"/>
   <path class="fil0" d="M1330 3492c73,-25 119,-49 208,-67 59,-12 213,-16 254,-33 -105,-71 -31,27 -106,-83l-469 111c-178,53 -32,225 5,349 28,92 45,195 99,259 87,-108 -30,-237 -43,-441 99,25 110,65 221,88 -4,25 -16,75 -15,77 8,23 33,17 66,12 415,-62 650,121 1304,-136 272,-107 439,-217 611,-426 39,-46 47,-82 88,-131 64,-77 133,-158 128,-289 -67,9 -319,388 -372,462 -113,158 -309,260 -530,332 -303,99 -304,80 -565,78 -96,0 -113,18 -184,30 -66,11 -321,-20 -398,-32l-245 -86c-64,-38 -34,-19 -57,-74z"/>
  </g>
  <g id="_1550305784">
   <path class="fil0" d="M14975 19423l239 -243c31,35 30,0 -23,88 -65,110 -143,108 -193,169l-23 -14zm-3982 -1254c71,70 23,32 51,158 57,262 108,263 256,322 -52,42 -137,36 -197,17 -59,-18 -108,-65 -132,-106 -74,-121 -10,-291 22,-391zm43 -997l74 138c65,122 272,247 297,361 -181,-39 -382,-258 -371,-499zm3778 -724c22,-13 -30,-29 35,-14 32,7 20,9 37,32 -5,4 21,28 -36,17 -88,-17 -8,-6 -36,-35zm-3208 -109c66,-28 351,-91 277,56 -18,18 -208,-19 -220,-22 -40,-10 -36,-15 -57,-34zm3141 -189c10,26 24,55 23,99 0,124 -1,60 -47,81 -18,-27 -16,4 -21,-46l16 -93c17,-37 8,-17 29,-41zm-1763 141l105 -73c3,-2 7,-6 10,-8l134 -122c3,-2 8,-5 11,-7l46 -46c3,-3 8,-6 10,-8 41,-25 5,-3 31,-11 77,-21 209,-163 260,-190 137,-73 107,-72 312,-77 297,-6 719,186 737,407 16,201 -78,239 -95,288 38,-19 40,-7 87,2 45,-58 17,-56 112,-55 -12,95 -36,57 -54,145 133,8 260,-22 307,77 56,117 -7,236 -46,316 -51,108 -111,137 -201,203 -90,66 -41,43 -91,108 -43,57 -72,15 -74,113 164,-4 276,-51 433,21 413,188 52,596 -177,690 -73,30 -139,20 -205,47 4,59 -2,37 33,69l-56 52 96 0c-14,27 -66,110 18,80 68,-23 66,-149 402,118 208,165 185,299 97,578 -101,323 -602,652 -856,456 -80,-62 -68,-88 -115,-37 -60,80 69,46 32,227 -50,240 -312,377 -566,393 -304,20 -313,-26 -528,-115 -357,-147 -256,-268 -372,-319l-91 -51c-70,96 75,103 -90,273 -55,56 -153,157 -223,197 -179,102 -536,35 -656,-74 -287,-264 -246,-598 -175,-971l71 -245c35,-105 -38,-81 -274,-85l40 -21c35,-23 16,6 35,-30 -287,12 -355,-171 -355,-426 -1,-199 167,-328 239,-355 82,-30 77,12 151,23l54 -97c2,-1 6,-4 8,-6l21 -13c39,-39 19,-8 32,-62l-36 -22c-19,-10 -25,-12 -47,-25 -123,-77 -139,-127 -224,-214 -96,-98 -193,-169 -193,-377 0,-287 244,-569 427,-586 95,-8 62,-5 88,58l15 -24c3,-3 11,-44 82,-23 48,14 73,45 123,64 -2,96 -18,32 -1,66 77,-40 46,-47 96,-119 3,-4 8,-10 10,-13 3,-3 7,-9 11,-13l58 114 55 -44c-10,-221 -41,-288 75,-467 108,-166 499,-530 739,-239 47,57 88,109 80,197 -10,112 2,185 18,288zm-1326 266l0 0zm542 -672c31,-105 162,-198 253,-249 122,-69 266,-155 347,1 -468,-16 -380,153 -600,248zm899 221c3,-123 41,-168 -20,-276 -44,-78 -88,-120 -146,-180 -112,-116 -213,-217 -424,-119 -433,201 -412,466 -552,739 -139,-28 -135,-49 -305,-9 -293,69 -642,417 -665,771 -11,173 -77,332 140,551 59,58 146,90 186,161 -199,146 -431,303 -451,618 -35,531 504,373 658,378 4,188 -87,265 -77,753 2,108 -3,282 38,364 27,54 143,182 187,211 99,65 557,125 718,94 160,-32 331,-320 423,-376 235,144 455,405 874,358 361,-40 613,-229 695,-540 113,5 195,54 332,19 107,-27 159,-70 257,-107 182,-69 262,-210 358,-369 97,-160 94,-422 13,-597 -89,-192 -293,-240 -393,-333 16,-26 80,-98 109,-125 47,-44 63,-64 103,-116 69,-87 113,-176 142,-313 23,-106 4,-115 -33,-190 -26,-51 -45,-98 -86,-132 -181,-146 -143,-133 -312,-145 17,-85 102,-137 157,-209 180,-238 157,-344 13,-471 -72,-63 -13,-68 -197,-164 4,-180 4,-180 -75,-293 -78,-112 -106,-96 -186,-179 -58,-60 -25,-36 -110,-70 -322,-125 -601,-269 -966,-15 -76,53 -133,104 -202,162 -65,54 -125,125 -203,149z"/>
   <path class="fil0" d="M13447 17387c44,4 58,14 86,32 219,141 297,466 92,720 -69,84 -105,160 -252,171 -295,22 -386,-178 -404,-440 -29,-392 211,-385 376,-467l102 -16zm-234 -79c46,-25 103,-47 180,-43 81,4 103,41 144,75 -129,-28 -234,20 -324,-32zm598 581c49,-270 -10,-243 -101,-412 -194,-360 -487,-314 -671,-106 -222,250 -171,530 -87,835 23,81 52,106 129,138 51,21 138,62 195,77 220,56 294,-34 382,-139 97,-115 121,-215 153,-393z"/>
   <path class="fil0" d="M12639 17326c-96,-66 -202,-119 -325,-40 -422,273 -413,797 -235,932l-38 -188c74,50 34,49 101,113 36,34 68,47 132,62 24,5 3,3 44,7 191,19 176,-13 278,-44 16,-117 23,-83 -280,-89 -173,-4 -207,-61 -207,-245 0,-97 47,-284 93,-352 59,-88 178,-116 327,-112 23,36 17,48 72,54 25,-40 19,-58 38,-98z"/>
   <path class="fil0" d="M13914 18335c165,3 4,-157 231,-157 134,197 -7,355 -54,537 -106,-18 -160,-77 -271,1 -12,127 27,182 89,239 117,-6 104,-44 194,-71 96,29 131,124 214,131 39,-89 -15,-119 -164,-226 12,-82 40,-106 63,-182 21,-67 34,-135 49,-192 41,-155 -11,-388 -252,-309 -90,30 -110,165 -99,229z"/>
  </g>
  <g id="_1550306456">
   <path class="fil0" d="M17945 25861c-3,3 -31,22 -36,27 -51,45 -34,55 -79,108 4,-42 -1,-25 15,-60l259 -382c38,-43 80,-83 140,-100 -15,91 -72,98 -108,169 -90,173 9,45 -186,322 -3,5 -12,18 -15,22l-17 20c-13,19 -4,-5 -21,32 -23,50 -2,54 -37,98l-77 -3c12,-67 72,-133 125,-208 13,-18 24,-29 37,-45zm877 164c-15,-34 -109,-254 -106,-256l22 -24c13,20 -1,3 22,32 92,112 264,232 287,410 -177,1 -165,-34 -225,-162zm-57 136c-40,-1 -83,0 -123,-2 -218,-9 -133,-170 -268,-297 0,124 75,154 99,278l-283 -29c-69,-76 48,6 -29,-25 -39,-16 -145,16 -237,18l45 -81c106,-161 268,-330 283,-357l-125 89 135 -206c27,-38 50,-106 175,-35 120,68 -41,-22 121,156 89,99 106,172 153,257 59,107 56,86 54,234zm-1379 -63c-38,-3 -108,46 -33,-159 8,-22 60,-131 72,-151 26,-43 167,-196 238,-228 -39,99 -103,159 -154,254 -119,223 -115,272 -116,271 -1,-3 -4,9 -7,13zm195 6c3,-119 75,-181 114,-284 -37,43 -65,104 -97,157 -65,105 -18,107 -165,105 12,-182 265,-640 474,-601 -37,99 -156,203 -212,339 63,-61 107,-191 218,-260 104,-64 -25,28 33,-19 34,-27 -2,2 24,-28 3,-3 6,-7 9,-10 65,-73 59,-74 160,-72 -24,81 -226,328 -283,421 -16,27 -6,9 -29,43 -128,196 -111,190 -246,209zm658 -1027c9,-102 77,-192 154,-249l-61 152c-32,63 -35,72 -93,97zm-1735 -2162c-193,-16 -538,-263 -589,-439 -36,-126 -97,-273 -112,-397 -11,-85 -11,-148 -31,-228 -21,-83 -48,-88 -56,-195l546 164c160,58 309,144 477,216 68,29 155,90 217,129 75,48 148,87 216,129 203,127 106,188 214,465 -91,-37 -12,-68 -110,-88 -33,81 78,166 88,267 -55,-39 -29,16 -34,-72 -82,38 -131,-88 -308,-219 -115,-85 -205,-152 -306,-242l-450 -369c-51,-30 -57,-11 -104,-11 0,1 -161,-33 -95,61 10,15 30,21 48,27 113,40 189,72 296,161 363,303 481,385 824,725 19,19 67,65 80,86 53,89 -27,99 -27,99 -2,0 -8,2 -10,2 -4,0 -18,-3 -22,-5 -39,-14 0,1 -35,-20 -112,-68 -152,-73 -289,-99 -194,-36 -161,-41 -292,-84 -5,-2 -37,-12 -41,-13 -137,-54 8,-368 -89,-494 -31,66 -9,347 -6,444zm2578 536c-18,20 -83,63 -106,71 14,-60 15,-47 62,-99 3,-3 6,-7 9,-10 30,-33 43,-47 76,-85 50,-58 122,-113 157,-169 -110,12 -159,180 -290,257 0,-207 51,-205 153,-305 26,-26 37,-36 67,-59l52 -41c3,-2 7,-6 10,-9l73 -53c3,-3 7,-7 9,-10l20 -57c-88,22 -138,126 -255,202 34,-110 223,-249 319,-316 5,-4 18,-12 22,-15 3,-2 8,-5 11,-7l143 -133c34,-26 57,-33 95,-67 45,-42 27,-36 87,-63 11,267 -68,738 -150,947 -35,88 -167,250 -229,319 -61,69 -199,230 -356,143 -72,-80 579,-839 585,-1078 -88,5 -50,23 -185,231l-398 624c-38,60 -39,83 -92,113 -8,-183 -7,-153 111,-331zm-1660 -620c-28,-44 -57,-265 -57,-312 91,67 107,233 57,312zm858 2532c-33,-86 6,-61 64,-115l97 -86c45,-32 97,-33 53,-73l-138 91c14,-109 136,-290 197,-379 63,-90 136,-264 185,-378 179,-419 140,-327 347,-389 38,-12 62,-30 100,-43 293,-94 301,-88 460,-396 149,-286 184,-579 221,-909 9,-78 13,-185 29,-262 16,-77 29,-157 21,-246 -78,-2 -61,6 -88,68 -48,112 -114,206 -216,277 -228,155 -521,374 -651,622 -94,179 -226,356 -243,395 49,-42 76,-87 133,-115 -3,173 5,147 -82,242 -36,39 -101,106 -118,157 3,-1 7,-2 8,-3l35 -27c0,0 18,-21 26,-30l71 -76c3,-2 8,-6 11,-8l44 -17c-14,140 -66,125 -91,224l28 -24c32,-18 5,-6 41,-10 4,214 -25,217 -106,364 -109,198 -230,394 -376,573l-196 272c-84,-228 -160,-470 -243,-708 -60,-172 16,-224 54,-364 29,-108 83,-242 67,-356 -6,-36 -6,-20 -18,-38 -73,43 -120,366 -156,464 -19,52 -13,29 -29,48 -47,-88 -116,-332 -152,-450 -102,-327 -136,-235 -90,-444l-91 -129c0,-110 62,-289 56,-417 -21,-394 -713,-681 -1041,-813 -116,-47 -215,-95 -325,-132 -75,-25 -115,-24 -182,-55l-325 -127c-65,-20 -84,-55 -154,-15 20,82 68,104 108,203 211,523 -49,837 679,1217 358,186 144,45 260,267l-1 -163c82,16 249,65 346,92 305,84 229,105 433,205 122,60 215,277 226,413 -112,-2 -138,-17 -218,-55 -63,-30 -122,-80 -180,-87 -13,138 101,131 210,182 65,30 126,93 192,107 72,16 73,10 109,87 148,318 200,688 349,1000l105 258c18,43 18,22 31,75 -71,-8 -37,-11 -69,-53 -124,87 -192,61 -318,121 -121,57 -183,89 -266,170 -279,274 -221,225 -310,566 -78,-9 -32,2 -85,-37l-24 55c40,55 17,14 69,59 37,33 3,17 58,49 89,-30 174,-123 286,-35 -54,28 -145,-1 -197,36 36,56 -9,25 80,52 97,29 189,33 286,40 -44,-31 -88,-38 -127,-75 276,-98 396,-56 712,-56 55,0 231,-5 272,4l59 25c3,1 8,1 11,1 3,0 9,-1 12,-1 64,-1 46,-6 103,9 283,77 174,17 326,1 39,-5 92,2 132,4 -10,-118 18,-11 -54,-95 3,-63 14,-55 17,-132 -185,-120 -161,-436 -723,-624 25,-70 2,-37 58,-89 94,-87 397,-296 397,-402 -86,-5 -182,80 -258,120 -7,3 -43,20 -50,24 -29,18 -14,9 -33,29 81,-19 48,-35 128,-53 -21,50 9,5 -38,45l-340 278z"/>
   <path class="fil0" d="M16111 22661c50,-25 19,-14 54,-67l40 79c48,-48 30,-239 24,-317 -66,-30 -44,-12 -92,-63 -45,71 -33,264 -26,368z"/>
   <path class="fil0" d="M16346 22827c5,-7 59,-396 -27,-425 -6,83 -25,380 27,425z"/>
  </g>
  <g id="_1550307248">
   <path class="fil0" d="M14013 13567c119,-149 94,-478 51,-661l84 88c99,102 26,328 -2,431 -26,92 -56,166 -85,265 -13,46 -32,89 -47,134 -5,17 -13,51 -20,69l-39 58c-111,-190 32,-177 58,-384 -3,4 -6,5 -7,11l-45 100c-7,14 -21,50 -28,63 -42,68 -14,27 -54,50 -47,-86 -32,-89 1,-190 69,-214 95,-318 115,-526 8,-82 11,-79 36,-111 27,109 30,184 26,311 -5,138 -37,162 -44,292zm1434 -724l79 -136 98 68c-11,14 -8,35 -71,55 -36,11 -67,10 -106,13zm-1964 -517c283,101 65,124 480,120 10,185 -6,116 -13,191 110,131 27,15 82,164 -3,2 -8,0 -9,3 -25,80 19,-27 -62,15 -10,352 -3,502 -123,868 -105,-29 -235,-185 -329,-255 -143,-107 -184,-145 -250,-335 -30,-89 -136,-298 -6,-453 22,-26 54,-48 62,-69 27,-73 -35,-2 101,-169 14,-18 18,-22 32,-39 3,-4 14,-17 17,-20l18 -21zm919 689c65,-275 -1,-259 130,-640 25,-74 55,-130 76,-200 310,-33 456,87 685,275 64,53 116,117 159,187 -40,132 -76,246 -174,319 -235,175 -419,307 -708,218 -106,-33 -249,-127 -308,-190 4,-5 10,-17 11,-13 2,4 9,-9 11,-11l30 -13c-71,-134 56,-476 107,-625 30,-85 35,-141 148,-149l-119 387c-40,154 -49,282 -48,455zm-145 -166c-31,-25 -23,-10 -47,-44 -17,-25 -11,-20 -23,-51 -47,-119 -112,-218 -122,-356 21,-9 39,-13 64,-28 42,-25 24,-12 46,-43 -90,14 -43,37 -140,34 15,-84 78,-49 219,-282 30,-50 9,-21 38,-50 -1,59 -16,177 -57,229 -7,9 -19,21 -27,28 -23,18 -10,7 -35,21l54 -4c2,-2 7,-5 10,-7 24,-21 25,-21 44,-46 49,-67 14,-58 103,-75 -3,59 -13,108 -25,167l-37 148c-26,111 -64,213 -65,359zm-83 -885c-25,79 -137,147 -198,199 116,-31 151,-105 213,-123 -26,67 -153,159 -231,177 -18,-42 18,-15 0,-54 -107,68 -240,143 -329,54 -24,32 -20,-52 -20,51 -93,-3 -153,-96 -162,-177l107 -8c68,-3 231,150 485,-21 53,-36 77,-77 135,-98zm-1949 436c46,-18 69,-63 138,-136l218 -203c101,-70 184,-96 339,-99 -64,100 -394,325 -589,634 -34,55 -32,62 -27,144 18,-44 15,-92 44,-143 102,-175 384,-429 540,-556 93,-75 193,-107 322,-15 56,-16 -4,-1 47,-18 50,-18 -28,-4 70,-18 2,108 40,153 56,238 -98,74 -190,84 -257,287 -50,155 34,172 -215,335 -230,151 -606,-33 -779,-78 -73,-19 -64,-8 -111,-44 16,-36 87,-158 111,-181 4,86 -9,93 35,142 2,-104 -6,-201 59,-252l-16 -23c-2,-2 -13,-11 -18,-14 35,-115 199,-419 377,-417 -26,32 -58,56 -91,86 -69,62 -236,251 -253,331zm1222 -470c77,106 18,106 18,107 -8,-11 -22,7 -30,-63 -9,-70 6,-34 12,-44zm335 118c3,-88 5,-76 100,-179 56,-59 100,-80 210,-76 15,40 27,70 35,115 -3,25 -153,244 -345,140zm1193 -56c25,-12 42,-19 72,-35 124,-69 221,-188 275,-328 21,21 13,2 37,46 62,117 28,260 -77,336 -54,39 -115,57 -187,73 -115,25 -112,-2 -196,-42l76 -50zm-2663 -674c140,-74 138,-100 349,-82 -52,58 -68,30 -107,89 129,-30 128,-66 317,-61 -30,111 -197,225 -276,402 71,-72 135,-172 211,-253 83,-90 152,-186 339,-137l20 113c8,-115 -15,-76 63,-104 32,60 49,112 90,168 49,67 80,61 114,142 60,-22 23,-23 103,-12 -20,50 -67,91 -104,145 -75,106 -72,33 -130,92 3,1 46,26 46,27 53,83 -55,53 -101,43 17,-27 31,-37 56,-56 -81,13 -63,32 -155,11 -284,-65 -288,34 -447,31 -71,-1 -20,-12 -74,-12 -11,0 -128,42 -190,-56l-88 -265c9,-57 195,-193 198,-208 1,-5 5,-7 8,-10 -116,29 -143,138 -239,163l-3 -170zm1341 704c-117,15 -86,35 -108,-52 -16,-63 -43,-73 -19,-165 28,-109 119,-170 248,-168 -27,41 -243,263 -54,379 -3,-89 -101,-61 18,-291 207,-16 191,26 213,49 -135,75 -207,281 -220,255 -2,-4 -8,6 -12,9 4,4 17,16 21,19l61 56c-41,-1 -162,1 -164,-46 -1,-2 -3,-9 -3,-11l19 -34zm1027 -16c32,-55 8,-27 82,-79l207 -175c47,-45 82,-81 126,-129 22,-25 39,-42 58,-68l63 -72c17,26 33,41 28,134 -3,57 -7,64 -30,106 -96,169 -360,287 -534,283zm-577 -390c0,0 -42,21 -10,-61 15,-41 33,-40 49,-52 -6,74 -2,68 -39,113zm-1791 -344c-16,-56 -25,-57 -36,-123l155 42c-23,45 16,34 -119,81zm1244 66c20,-44 -8,-201 -7,-287 1,-104 11,-202 28,-305 19,-110 30,-164 58,-269 45,-170 28,-187 112,-218 182,605 201,267 376,628 241,494 120,297 -71,677 -279,-58 -528,43 -594,-183 -38,-128 -19,-554 88,-666 -4,141 -73,437 10,623zm657 351c25,-137 99,-232 133,-378 26,-110 109,-248 180,-311 132,-117 141,-130 332,-180 154,-40 231,-99 366,-140 32,208 -80,262 -51,453 37,238 61,259 -69,425 -77,99 -316,329 -425,397 -118,74 -113,28 -171,14 -46,54 -34,65 -131,73l-31 -53c-3,-5 -13,-36 -14,-39 -90,-269 16,-38 -119,-261zm-793 -409c-57,-25 -10,4 -60,-33l-71 -93c-35,-117 28,-434 90,-553 46,-88 230,-502 303,-568 23,58 -48,209 -77,281 -14,34 -15,41 -26,80l-20 71c-85,262 -147,515 -139,815zm-228 -153c-59,-30 -50,47 -18,-183 8,-61 29,-137 36,-203 -44,82 -65,234 -64,355 -585,-32 -471,152 -958,-42 -88,-35 -200,-77 -271,-40 20,58 23,46 91,69 147,52 247,87 236,260 -99,-56 -53,-170 -158,-177 -2,67 72,151 101,213l-51 103c76,-37 -3,-46 112,-73 -1,90 -8,247 19,314 37,94 118,104 147,203 -65,75 -129,66 -201,182 28,4 21,-5 55,26 -142,152 -190,476 -336,594 -69,56 -127,68 -193,128 10,40 16,43 33,75 -51,26 -85,33 -87,100 200,-17 146,-271 693,-91 493,162 596,-104 709,-143 73,397 150,581 462,794 86,59 132,146 219,201 -4,142 -69,188 -77,279 75,-123 36,-133 130,-202 60,126 70,260 173,336l67 -57c12,-263 190,-548 195,-569 10,-41 -1,-104 11,-156 24,-114 35,-124 36,-278 73,17 109,54 178,80 174,66 444,74 651,-1 103,-37 109,-101 284,-223 303,-211 387,-4 505,-181 -353,-195 -335,-238 -640,-484 -103,-83 -121,-77 -192,-191l47 -26c471,-183 302,-365 180,-770 -39,-128 20,-140 19,-262 0,-96 -41,-194 -3,-303 56,-161 158,-120 204,-436 -123,-5 -23,79 -279,198 -64,30 -118,51 -185,73l-526 237c-76,55 -119,130 -168,212l-56 76c-23,-372 -382,-661 -466,-852 -120,-276 -41,-247 -27,-353l-77 -32c-16,-11 -27,-31 -50,-51 -206,90 -473,690 -492,885l161 -403c15,-43 67,-113 100,-173 42,-76 72,-126 144,-157 -23,117 -282,462 -365,789l-39 289c-9,37 -6,20 -19,41z"/>
   <path class="fil0" d="M13602 12528l-37 -63c-58,66 -273,317 -179,418 88,95 -29,-110 115,-282 41,-48 57,-25 101,-73z"/>
   <path class="fil0" d="M14639 11831c119,-35 672,-723 382,-738 12,30 74,83 15,232 -81,207 -397,506 -397,506z"/>
   <path class="fil0" d="M13831 11415c48,-37 226,-304 181,-378 -57,24 -21,14 -51,89 -32,77 -105,186 -130,289z"/>
   <path class="fil0" d="M13830 11212c54,-43 19,-51 51,-127 3,-6 32,-59 33,-62 24,-89 -5,-54 -11,-64 -49,27 -38,41 -66,115 -21,52 -43,82 -7,138z"/>
   <path class="fil0" d="M12707 11830c27,-37 41,-87 65,-138 98,-202 131,-203 251,-346 -116,44 -292,321 -316,484z"/>
   <path class="fil0" d="M14942 12615l36 -210c-44,19 -56,37 -67,89 -19,91 -16,93 31,121z"/>
   <path class="fil0" d="M13502 12850c33,-23 102,-168 120,-224 -25,8 -164,151 -120,224z"/>
   <path class="fil0" d="M14619 11354c31,-34 116,-220 119,-278 -49,42 -118,183 -119,278z"/>
   <path class="fil0" d="M14523 11266c26,-32 46,-76 69,-109 27,-39 67,-71 40,-115 -30,27 -127,182 -109,224z"/>
   <path class="fil0" d="M15015 12756c34,-33 82,-143 55,-203 -22,35 -72,149 -55,203z"/>
   <path class="fil0" d="M13580 12964c45,-25 29,-27 52,-85 22,-55 29,-46 26,-124 -33,50 -73,127 -78,209z"/>
  </g>
  <g id="_1550310248">
   <path class="fil0" d="M1611 20659c-171,102 -417,168 -559,15 -29,-32 -63,-76 -41,-137 11,-33 -3,-47 115,-75 66,-16 269,-10 349,-10 -27,28 -3,10 -39,30 -48,28 -208,57 -238,124 37,16 176,-41 234,-56 147,-37 196,-59 179,109zm-606 -517c34,-12 51,-10 89,-21 105,-31 114,-44 254,-49 -19,75 -16,35 -37,86 96,-29 157,-104 290,-54 69,48 93,121 56,217 -82,37 -320,46 -428,50 -319,13 -233,-174 -224,-229zm721 -170c-121,63 -338,-1 -487,26 -148,28 -312,50 -306,-140 5,-168 186,-125 357,-146 125,-15 131,5 233,13 74,6 125,-10 213,-8 49,83 68,189 -10,255zm-1116 -2865c67,-82 53,-267 220,-420 75,-69 116,-70 215,-117 219,-102 135,-151 239,-195 291,-124 772,-18 880,137 -112,-12 -333,-149 -399,-119 76,45 549,131 690,479 -60,-12 -71,-22 -125,1 128,24 105,52 157,163 100,213 128,305 100,562 -21,193 -200,542 -282,706 -71,140 -152,277 -213,418l70 -80c20,-42 30,-64 52,-112l319 -653c23,31 21,15 25,64 0,9 -5,34 -8,43l-103 281c-96,286 -179,320 -260,432l-22 33c-20,36 -22,48 -43,87 -38,73 -106,186 -171,232l-36 19c-11,5 -23,9 -39,15 -55,21 -29,-4 -78,27 -69,212 -7,275 -23,481l-215 -26c-11,-178 -1,-328 39,-464 66,-223 -22,-502 53,-697 65,-169 -12,-341 74,-439 74,-86 655,-190 296,-705 -59,-85 -210,-159 -360,-122 -157,38 -205,101 -286,202 -94,-23 -38,-51 -179,-70 -53,-8 -152,-17 -220,-11 -75,7 -113,34 -146,84 -18,26 -69,130 -77,157 -38,133 28,288 78,368 62,98 173,127 307,167 18,302 -78,1384 36,1547 85,-91 57,-682 53,-836 -3,-145 13,-310 -5,-449 -21,-171 12,-258 3,-406 -242,-118 -357,-97 -364,-293 -16,-428 289,-229 326,-178 72,97 87,205 132,303 163,-107 -25,-111 192,-355 252,-286 542,-129 510,248 -15,167 -162,194 -333,205 -122,217 14,236 -146,341 6,247 -20,1249 -87,1394 -94,41 -95,-2 -189,1 -25,49 -4,11 -8,42 -1,2 -1,9 -1,11 -1,3 -1,10 -2,12 0,2 -1,14 -1,11 0,-2 0,8 -2,12 -53,18 -107,5 -154,-39 -100,-90 -32,1 -217,-2 7,-207 40,-360 8,-573 -113,-8 -95,15 -146,-74 -174,-301 -386,-711 -354,-1082 13,-145 -126,-567 199,-992l203 -198c-55,45 -91,128 -126,200 -17,36 -35,71 -49,118l-14 69c0,3 1,10 1,12l6 23zm475 818c-107,-5 -135,-26 -181,-90 76,9 144,43 181,90zm224 -450c-55,-44 -65,-63 -83,-135 76,29 80,31 83,135zm392 2948c66,-90 105,-105 76,-260 -21,-116 63,-146 68,-286 9,-245 -26,-31 29,-337 15,-82 50,-221 89,-280 112,-166 222,-231 327,-403 256,-422 531,-1275 420,-1740 -61,-253 -96,-241 -180,-365 -149,-221 -218,-298 -488,-421 -143,-65 -424,-127 -626,-91 -226,41 -316,114 -501,224 -290,172 -517,516 -584,872 -76,406 23,917 143,1256 67,186 172,320 254,476 105,202 80,369 66,662l48 19c-62,153 -42,130 97,328 -16,74 -54,127 -24,225 40,132 62,41 18,205 -50,184 59,272 179,325 131,57 337,19 447,-25 160,-65 140,-188 142,-384z"/>
   <path class="fil0" d="M2190 17512c111,11 88,-181 71,-256 -8,-32 -41,-90 -60,-121 -28,-47 -34,-83 -108,-79 1,79 55,117 90,191 54,116 0,162 7,265z"/>
   <path class="fil0" d="M2055 18541c78,-131 413,-702 341,-868 -47,41 -22,139 -53,232 -24,72 -58,160 -87,224 -28,60 -70,141 -105,205 -47,85 -68,88 -96,207z"/>
   <path class="fil0" d="M720 18392c59,-34 53,-80 117,-132 68,-55 125,-38 130,-128 -80,3 -284,196 -247,260z"/>
   <path class="fil0" d="M1495 16695c88,-6 12,-8 116,-156 37,-52 79,-144 121,-173 -89,1 -95,64 -136,137 -27,49 -94,141 -101,192z"/>
   <path class="fil0" d="M1913 18577c43,-75 243,-430 254,-496 -74,9 -101,160 -132,228 -43,96 -96,177 -122,268z"/>
   <path class="fil0" d="M1602 16749c33,-41 162,-205 166,-256 -50,8 -79,74 -107,112 -38,52 -95,85 -59,144z"/>
   <path class="fil0" d="M1696 16785c65,2 108,-96 160,-198 -64,2 -158,183 -160,198z"/>
   <path class="fil0" d="M833 18506c56,-24 153,-149 177,-213 -54,20 -64,45 -100,95 -34,49 -61,64 -77,118z"/>
   <path class="fil0" d="M1841 16912c23,-40 90,-161 90,-216 -16,38 -121,156 -90,216z"/>
  </g>
  <g id="_1550311928">
   <path class="fil0" d="M6453 23004c5,-190 -4,-249 184,-273 -11,95 -53,142 -110,215 -44,56 -27,38 -74,58zm596 29c-74,-4 -33,11 -88,-32l42 68c-60,44 -201,212 -224,285 66,-6 44,-9 71,-62 43,-85 140,-249 246,-192 -53,-55 -22,6 -36,-74 87,-61 296,-300 390,-323 98,-23 615,8 691,35 74,224 26,1249 3,1588 -9,133 32,189 36,309 7,224 -4,451 -4,675l-96 1107c-193,91 -464,30 -522,48 -240,76 -97,1 -332,32 -28,4 -60,7 -89,3 -119,-15 -23,-14 -80,-25 -35,-7 -111,14 -173,6 -53,-7 -101,-30 -165,-35l-18 47c-2,4 -7,10 -9,13 -2,4 -6,10 -10,14 -153,-4 -265,-15 -364,-76l-1 -788c73,-44 53,13 81,-62 13,-36 9,-115 10,-156 -42,-17 32,-26 -15,8 -47,32 29,0 -36,26 -21,-187 -28,-350 -10,-551 12,-125 12,-464 38,-546 61,62 13,84 74,108 35,-83 17,-224 12,-329 1,7 5,34 2,47l-37 79c2,-149 -15,-635 36,-751 38,-86 16,-67 1,-98 -103,-204 186,-524 333,-642 19,-15 20,-18 37,-35l40 -41 164 28c-46,35 -100,115 -143,165 -93,109 -375,403 -404,526 98,-111 518,-701 677,-726 55,-8 24,2 72,4 61,2 36,1 95,-12 -4,4 -8,5 -10,12l-58 76c-79,96 -167,150 -227,247zm-590 96c12,-124 110,-195 206,-334 42,-61 36,-66 114,-81 -31,89 -94,140 -147,211l-173 204zm621 -852c83,-1 152,10 231,-5 231,-43 348,-164 339,252 -146,53 -397,66 -596,55l26 -302zm1168 1665c3,-163 22,-398 41,-558 22,-188 3,-382 7,-572 5,-3 11,-6 14,-7l61 -11c-9,-11 -22,-22 -32,-35 -44,-55 -20,-51 -95,-69 -5,-95 2,-82 -48,-117 -2,4 -4,10 -5,13 -1,3 -3,9 -4,13l-28 70c-61,-3 -396,-46 -442,-76 29,-54 48,-79 205,-58 72,9 90,21 124,63l30 41c-40,-194 -131,-118 -337,-133l-10 -377c-227,-17 -396,55 -628,30 -245,-25 -102,-4 -132,136 -32,150 -46,136 -15,298 -123,58 -358,61 -491,33 -2,4 -6,9 -8,12l-14 24c-64,108 -68,423 -72,552 -4,123 -33,178 -30,309 3,112 -14,212 -16,309 -10,438 -25,863 -41,1299 -44,-31 -17,-24 -68,-35 -7,122 30,235 37,378 10,230 -82,601 -92,748 -7,105 -88,266 -60,323 105,-42 79,-290 154,-370 1,73 8,200 0,267 -10,85 -21,84 28,152 89,-24 268,10 367,22 83,11 307,5 393,-5 199,-23 594,39 726,-25 -2,0 -262,6 -324,3 17,-15 -14,-18 64,-37l196 -22c89,0 145,30 268,9 290,-48 278,-124 273,-262 -3,-69 17,-196 18,-292l-17 -857c-12,-389 -4,-796 3,-1186z"/>
   <path class="fil0" d="M6875 24243c28,-13 19,-7 34,-20 51,-45 22,-49 81,-97 -33,147 -79,196 -104,278 -31,101 30,156 118,-30l43 70c62,-15 86,-11 180,25 5,2 10,4 15,6l28 14c-70,179 -388,885 -399,1016 275,-25 104,-26 253,-209 117,-143 198,-334 285,-498 33,-63 43,-125 78,-196 270,-557 93,-338 -297,-366 23,-167 300,-587 311,-786 -55,8 -38,14 -69,8 -3,0 -8,-2 -12,-3 -3,-1 -8,-3 -12,-5l-36 -21c-141,204 -253,427 -388,596 -34,44 -38,54 -66,101 -44,78 -44,40 -43,117z"/>
   <path class="fil0" d="M6981 25975c66,-22 54,-46 90,-111l285 -372c129,-163 470,-447 238,-429 -33,57 -22,77 -53,137l-422 546c-42,50 -137,156 -138,229z"/>
   <path class="fil0" d="M6957 26163c60,-23 155,-156 204,-209 79,-87 125,-138 203,-217 74,-76 129,-147 200,-220 88,-90 183,-155 189,-219 -63,12 -325,317 -417,411 -70,71 -131,142 -197,221 -96,113 -172,160 -182,233z"/>
   <path class="fil0" d="M7339 26122c29,-23 70,-116 102,-161l256 -292c50,-49 95,-76 140,-122 -52,-50 -104,30 -147,78 -72,80 -387,401 -351,497z"/>
   <path class="fil0" d="M7857 24289l74 9c-5,66 -31,85 16,107 14,-23 49,-138 58,-171 -93,-59 -16,12 -65,-81 -69,24 -79,64 -83,136z"/>
   <path class="fil0" d="M7549 26176c54,-9 130,-123 172,-174 40,-49 126,-156 144,-215 -50,22 -308,359 -316,389z"/>
   <path class="fil0" d="M7819 23031c69,76 49,38 68,-35 1,-4 4,-10 4,-13 13,-42 41,0 5,-17 -14,-54 20,-29 -47,-41l-30 106z"/>
   <path class="fil0" d="M7454 22915c44,-43 131,-108 136,-190 -33,24 -122,131 -136,190z"/>
   <path class="fil0" d="M7904 23247c7,-10 50,-21 0,-106 0,0 -84,-7 0,106z"/>
  </g>
  <g id="_1550314280">
   <path class="fil0" d="M3503 12960c42,22 12,-8 50,36 67,76 103,291 92,390 -14,130 2,38 -33,80 -30,-142 -103,-365 -109,-506zm-3231 -201c1,-160 70,-361 177,-454 -3,46 -86,388 -177,454zm3126 270c-4,-3 -9,-7 -13,-11 -4,-3 -7,-7 -10,-11 -14,-15 -93,-184 -243,-358 -108,-125 -289,-275 -324,-364 314,47 603,411 619,765l-29 -21zm-3124 -511c-13,-129 7,-149 2,-269l118 2c-5,64 -94,275 -106,255 -2,-3 -9,8 -14,12zm1868 -583c60,32 24,-40 50,72 11,47 8,72 8,120 0,79 12,141 39,195 13,-13 25,-23 39,-39l36 -43c2,-3 7,-8 10,-12 309,-2 360,27 525,176 258,231 476,485 572,836 69,249 32,290 25,473 -1,13 -5,93 -4,95 6,34 24,40 40,58 -81,-3 -96,-5 -164,-19 24,-428 -26,-706 -241,-1033 -48,-73 -136,-201 -236,-207 5,119 183,45 345,484 84,225 139,459 95,740 -4,-4 -11,-17 -13,-14 -16,28 -34,-155 -35,-161 -14,-108 -36,-444 -88,-499 -15,37 30,249 43,296 33,109 31,253 43,382l-209 -5c10,-108 101,-298 68,-365 -59,38 -35,109 -93,279 -10,29 -12,35 -17,52 -32,94 6,62 -104,78 -37,-150 59,-271 93,-445 11,-60 31,-107 -25,-128 -20,44 -24,325 -110,396 -27,-63 -34,-103 -70,-170 -217,-408 -294,-337 -450,-515 -79,-91 -286,-289 -408,-317 10,52 45,65 139,119 77,43 176,118 222,204 -117,7 -379,-54 -560,-29 -39,6 -49,14 -94,16 -7,0 -48,-1 -54,-3 -41,-9 -22,-7 -43,-22 117,-50 167,-10 221,-29 -68,-33 -230,-8 -321,20 -119,37 -262,33 -405,37 -113,4 -508,-20 -566,-3 -74,22 -96,54 -169,20 -21,-89 69,-307 98,-402 17,-59 49,-116 71,-184 68,-201 89,-179 208,-170 6,241 -182,417 -181,652 8,-142 180,-464 223,-638 120,-3 250,18 361,-20 69,-24 295,-8 356,20 51,-54 64,-81 68,-138 6,-77 13,-129 14,-210l449 5c25,83 53,351 69,387l-8 -312c6,-132 -8,-56 47,-82 36,50 31,162 43,285 9,86 25,187 41,266 6,-151 -15,-252 -18,-412 -2,-87 -11,-86 25,-137zm509 -502l96 -52c38,-26 50,-45 102,-37 70,11 108,100 71,191 -26,64 -105,90 -195,86l-170 -53c-33,-22 -11,-5 -36,-32 25,-17 51,-27 80,-47l52 -56c-106,24 -99,68 -166,109 -60,37 -158,6 -197,-17 33,-45 41,-35 93,-71l347 -108 -77 87zm-1587 184c-2,4 -60,90 -100,28 -39,-61 -6,-93 22,-126 60,-74 76,-134 195,-145 -15,76 -74,153 -111,223 40,-20 108,-115 151,-169l36 -45c1,-7 6,-8 10,-12 124,13 97,28 182,60 75,-37 -19,-15 82,-45l345 -30c-47,38 -90,35 -146,78 60,23 542,-86 665,-35 -30,37 -45,40 -90,71 -54,38 -24,33 -108,38 -282,20 -289,1 -294,107 -1,27 3,63 3,93 0,67 -11,86 -17,146l-133 0c1,-68 -1,-153 13,-209 18,-67 -2,-7 3,-130l-305 -19c-56,57 1,39 -72,85l-329 110c-29,-46 -18,-39 -2,-74zm611 11l-12 216c-117,28 -145,10 -196,16 -87,11 -51,60 -51,68 7,101 -4,64 -16,93 -20,52 -2,106 -1,185l-318 -50c-42,-5 -245,28 -343,28 -136,1 -147,16 -274,0 -98,-13 -204,-9 -271,34 -10,124 -24,286 -19,401 4,76 11,122 -4,194 -18,83 -41,94 -49,169l44 -94 43 253c132,6 90,35 197,3 129,-38 300,-1 442,-12 92,-8 144,-21 237,-28l12 20c1,2 4,12 6,18l36 -30c44,-42 532,-41 621,-41 747,-6 1095,609 983,897 4,3 10,2 12,8 6,17 52,-2 82,65 28,60 5,73 43,134 -12,-71 -26,-138 10,-196 31,44 27,-62 23,62 -2,70 -2,20 -19,52 59,-9 43,-28 63,-111l535 4c56,25 37,-2 40,94 2,-4 5,-15 6,-13 10,35 7,-22 9,-27 14,-36 -9,-21 26,-47 67,-47 29,38 83,-43 -95,-59 -95,32 -92,-333 14,21 14,2 21,42l0 128c8,84 1,26 17,52 10,-16 13,4 17,-70 9,-152 15,-79 38,-272 44,-365 -10,-403 -147,-642 -53,-94 -91,-182 -147,-271 -81,-132 -301,-336 -456,-364 -124,-23 -232,-77 -344,-77 -299,1 -281,39 -273,-144l67 -55c-80,-123 -180,-81 -357,-95l12 -250 306 23c110,25 760,266 712,-150 -23,-211 -234,-266 -415,-220 -316,80 -207,48 -618,38 -127,-3 -200,12 -309,18 -370,18 -673,-161 -833,96 -110,178 49,403 265,372 244,-35 248,-163 556,-148z"/>
   <path class="fil0" d="M3362 15171c-71,50 -106,66 -232,53 -16,-142 37,-332 74,-465 21,-74 14,-97 68,-144 57,39 59,47 79,144 -58,-24 -25,-27 -87,-34 6,62 -3,16 41,67 26,30 38,51 52,96 26,85 14,191 5,283zm-294 29c-63,-202 32,-607 131,-740 35,26 39,19 58,110 -92,138 -136,289 -146,456 -1,25 0,64 -4,88l-39 86zm-173 4c161,43 96,140 438,87l116 -142c171,-291 -200,-611 -198,-865 -76,-25 -22,-31 -106,-33 -26,29 -174,372 -189,418 -89,275 -77,231 -61,535z"/>
   <path class="fil0" d="M1292 12747c47,49 51,29 92,-19 -27,-21 -88,-48 -92,19z"/>
   <path class="fil0" d="M1586 12774c-18,-87 21,-34 -46,-63 -20,61 -12,45 46,63z"/>
  </g>
  <g id="_1550314208">
   <path class="fil0" d="M2223 9123c37,79 -57,-7 -19,-36l19 36zm-1029 -498c-14,50 -58,137 -87,188 -11,19 -96,159 -100,160l-10 -17c66,-102 112,-258 197,-331zm2176 287l-195 -45 127 -95c-23,-49 -101,-275 -106,-334 36,23 24,4 52,48l62 158c22,68 54,187 60,268zm119 -1473c-57,34 -49,40 -102,80 -55,42 -151,113 -224,122l33 -94c2,-4 5,-8 7,-12 2,-3 4,-8 6,-11 6,-9 21,-31 22,-33l40 -162c-57,25 -27,22 -60,123 -82,256 -131,235 -247,297 3,-88 99,-331 147,-416l15 -23c183,3 330,-6 465,31 -31,57 -43,62 -102,98zm-2420 -185c-20,-185 -20,-126 -58,-140 -52,47 -19,38 -47,108 54,25 83,-60 69,311 -233,-92 -70,-179 -156,-339 -107,10 -52,118 -41,196 -82,-27 -499,-209 -554,-297 291,-29 583,-16 882,-19l-3 129c34,15 6,-5 48,14l27 504c-147,-67 -160,-159 -158,-281 1,-75 -2,-124 -9,-186zm2458 -816c75,-38 179,-221 172,-299 -99,3 -16,32 -113,70 -94,37 -106,-11 -176,4l-330 107c-155,49 -445,233 -610,246 -152,-159 -310,-877 -438,-983l-106 28c-58,21 -2,127 -125,392 -74,159 -173,316 -238,478 -232,-19 -591,-248 -734,-255 -173,-8 -135,10 -292,-34l-44 44c66,114 439,414 511,519 30,44 32,57 70,94 46,47 59,37 71,120 -182,3 -669,-25 -817,27 -92,32 -180,13 -242,47 9,75 31,56 96,95 42,26 76,51 123,78l509 294c127,74 204,90 216,186 -120,100 -258,64 -500,195 -344,185 -470,97 -500,206 194,131 1015,144 1180,292 -95,260 -365,563 -374,642 -12,103 51,-37 -20,165 -21,60 -103,266 -105,296 33,-16 31,-25 54,-52 74,-89 77,1 269,-172 57,-52 81,-80 145,-130 93,-75 73,-116 171,-82 64,-115 195,-241 340,-272 93,520 235,522 381,898 29,75 -8,68 53,130l32 -60c100,-176 117,-293 162,-491 46,-204 143,-369 163,-590 234,5 511,213 776,276 284,68 122,114 250,61 -17,-87 -43,-40 -67,-131 -70,-272 -122,-487 -319,-739 -62,-80 -141,-153 -160,-262 204,-96 822,-391 857,-564 -66,-31 -251,-80 -334,-95l-381 -82c27,-74 262,-403 330,-499 19,-27 42,-68 54,-89l21 -36c2,-4 4,-8 6,-13 15,-37 9,-2 13,-60 -58,41 -72,96 -118,171l-323 482c-40,35 -13,23 -55,9 -5,-11 -60,27 28,-109l209 -301c68,-101 93,-196 187,-289 3,-3 7,-6 10,-9l28 -28c27,-46 -9,-3 -18,-88 36,-21 52,-21 88,-37 -10,33 16,-1 -15,37 -33,42 -21,19 -42,32l55 20c-15,59 -25,47 -34,110zm-2861 -126c86,16 117,67 124,160 -48,-35 -115,-84 -124,-160zm238 2913c8,-58 40,-91 71,-143 2,-4 5,-8 7,-12l57 -87c2,-4 4,-9 6,-13l60 -102c3,-3 6,-7 8,-10 3,-4 6,-8 8,-11l46 -85c36,-70 94,-133 133,-229 89,-222 61,-108 21,-271 -171,41 -337,-66 -502,-96 -168,-31 -342,16 -507,-41 -86,-29 -17,-2 -52,-28 19,-15 -2,-3 38,-24l75 -33c51,-21 70,-22 130,-36 127,-31 679,-184 744,-178 7,106 -2,209 38,285 32,-65 -32,-865 -44,-999l111 -76c-91,-169 -424,-411 -509,-659 161,11 448,114 591,202 101,62 74,54 169,17 -1,51 -16,145 -33,198 -10,30 -27,52 -35,77 -23,78 -3,44 5,59l55 -143c56,-189 81,-157 118,-286 42,-149 120,-291 177,-424 32,-75 57,-228 142,-259 77,78 23,163 -9,243 -54,130 -294,601 -246,696 33,-43 52,-143 75,-206 28,-80 59,-109 88,-184 41,-107 116,-305 163,-386l38 76c35,205 -117,415 -139,612 32,-77 62,-166 95,-238 44,-93 27,-176 99,-229 60,106 143,499 362,542 -22,-61 -19,-12 -39,-94 79,-17 309,-138 403,-181 131,-59 281,-129 450,-146 -25,106 -68,108 -164,143 -70,26 -135,45 -206,68 -96,31 -335,59 -368,176 87,-30 181,-93 279,-122 119,-35 210,-73 333,-84 -19,98 -231,459 -303,552 -62,80 -27,13 -48,110 -19,85 -70,145 -94,235l76 -135c30,-31 8,-15 52,-28 24,72 -6,21 -18,105 49,-42 39,-51 130,-52 5,116 -44,206 -79,309 -65,194 -37,130 -158,223 15,227 403,646 393,927 -179,-13 -426,-150 -596,-216 -80,-31 -107,-81 -186,-87 -51,68 -75,218 -95,316 -13,63 -14,120 -26,176 -15,71 -25,113 -30,175 -51,-55 -43,3 -42,-106 1,-91 61,-212 11,-286 -88,81 -14,390 -120,499 -1,-87 -4,-414 -81,-440l50 553c8,54 27,84 33,141 -2,-80 -11,-85 16,-145 46,41 27,-9 36,60l-56 177c-94,-132 -160,-275 -218,-422 -80,-202 -111,-257 -126,-490 73,-24 79,0 96,-66 -59,-31 -210,0 -276,84 -4,-5 -8,-12 -11,-16l-17 -38c-26,-79 15,24 -1,-22 -128,136 -91,265 -316,330 31,-98 80,-161 138,-242 30,-43 117,-149 87,-215 -73,18 -93,144 -129,208 -114,204 -223,422 -434,547z"/>
   <path class="fil0" d="M1681 7876c74,36 143,75 150,182 -98,-22 -141,-70 -150,-182zm439 -37l75 -40c-35,18 -42,26 -75,40zm-218 79c-11,-611 692,-351 270,27 -54,49 -75,49 -143,77 -86,36 -114,74 -123,-35 74,-45 137,12 218,-128 -124,17 -53,60 -222,59zm-128 -56c-62,-72 -139,-114 -108,-272 44,-225 245,-395 431,-241 74,61 153,4 173,166 -182,-36 -478,-206 -548,34 69,-92 99,-88 246,-79 -43,92 -90,93 -125,179 -17,40 -16,58 -28,119l-41 94zm-63 -308c-17,21 21,-27 0,0zm-167 -15l-38 -69c-25,-40 1,-25 -39,-41l48 555c76,40 -26,-84 67,32 253,317 235,72 377,201 20,-37 10,-32 50,-54 96,-53 52,19 203,-124 71,-68 146,-130 176,-262 23,-102 -37,-246 -75,-346 -28,-75 -127,-120 -165,-161l-43 -79c-293,2 -496,113 -561,348z"/>
   <path class="fil0" d="M2095 8325c77,-96 178,-173 264,-266 48,-51 204,-212 202,-289 -2,-90 1,-26 -18,-51 -52,56 -12,53 -95,173 -135,195 -381,376 -353,433z"/>
   <path class="fil0" d="M2333 8235c52,-19 264,-209 228,-294 -78,24 2,11 -110,155 -36,46 -105,92 -118,139z"/>
   <path class="fil0" d="M2929 6824l12 -23c0,-46 14,3 -6,-35 -10,-20 -31,-33 -45,-44 -46,81 -53,92 -13,111 51,25 52,-8 52,-9z"/>
   <path class="fil0" d="M2529 8261c56,-20 44,-13 73,-68 58,-111 17,-86 14,-91 -33,44 -59,113 -87,159z"/>
   <path class="fil0" d="M2734 6977c53,31 68,34 90,-29l-17 -26c-45,4 -60,17 -73,55z"/>
   <path class="fil0" d="M2539 7487c28,-56 24,-52 -14,-91 -38,50 -55,67 14,91z"/>
   <path class="fil0" d="M2584 7250c36,-36 39,-15 46,-78 -49,18 -70,35 -46,78z"/>
  </g>
  <g id="_1549779288">
   <path class="fil0" d="M18640 3702l106 -44c53,-12 81,-10 135,-13l260 -38c-51,46 -171,112 -225,118 -77,7 -36,-20 -131,-7 -66,10 -90,20 -145,-16zm-644 -136c30,-118 43,-49 112,-161 62,-103 88,-103 97,-177 -272,168 -117,467 -624,134 28,-57 9,-23 50,-72 127,-151 269,-280 383,-452 166,6 272,143 165,236l48 18 -15 119 51 38c100,98 37,244 -100,322 -87,51 -87,29 -167,-5zm155 -483c-3,1 -52,36 -12,26 1,0 60,-32 12,-26zm-594 242c-93,-27 -134,-90 -177,-170 76,-139 164,-317 297,-387 124,30 29,76 262,73 -17,162 -306,356 -382,484zm-472 -777c81,14 71,9 82,116 8,86 5,101 21,167 -4,-4 -9,-14 -10,-11l-66 -123c-25,-68 -42,-93 -27,-149zm2637 661c156,-207 202,-178 275,-466 28,-109 -17,-132 54,-213 11,266 -47,383 -186,570 -41,54 -68,88 -143,109zm-2397 -105c-80,-170 -13,-226 70,-339 81,-108 129,-191 274,-235 13,95 44,101 -9,186l-335 388zm2741 -580c0,-1 -65,1 -5,-157 6,-16 16,-42 25,-64 3,-5 9,-22 11,-27 15,-29 13,-21 27,-37l-3 241c-25,79 -9,16 -55,44zm-2790 346c-3,-5 -7,-17 -8,-14 -1,3 -6,-10 -7,-13 -41,-86 -65,-236 -58,-326 74,-52 562,-193 388,2l-315 351zm-91 -409l0 -124c129,-14 492,-106 597,40 46,62 12,141 -34,177 -11,-25 -24,-222 -231,-195 -124,17 -218,102 -332,102zm-3 -177c1,-163 31,-257 35,-423 9,-393 -6,-406 118,-780 40,-123 86,-195 155,-282 198,-250 435,-457 723,-609 109,-58 214,-69 340,-97l16 46c0,-2 1,5 2,7 111,-14 159,-58 290,-37 44,7 82,32 121,42 51,14 83,6 134,13 152,22 100,-61 366,91 66,38 51,8 77,74 -29,55 -12,36 -82,70 -41,20 -51,27 -81,46 -175,113 -144,125 -152,284 -315,186 -794,-158 -1104,275 -16,209 119,268 265,328 182,75 285,59 349,237 -55,148 -200,237 -309,330 6,128 -9,90 51,161 96,1 300,-52 348,2 88,99 -77,169 -81,264 60,-32 39,-56 121,-88 -5,113 -59,151 -35,296 19,112 95,97 184,140 83,40 150,74 251,9 288,-185 294,-358 321,-624 8,-89 23,-217 -1,-285 -29,-80 -86,-137 -87,-225 119,-63 253,-113 428,-114 29,260 6,419 -5,682 -10,250 -117,362 -147,561 59,-45 6,-28 76,-54l-18 180c70,-138 95,-557 202,-678l-143 705c-62,232 -390,550 -594,652 -113,57 -924,189 -1039,182 11,-65 83,-134 153,-218 -30,-33 -26,-47 -34,-89 -39,-206 -35,-217 -115,-442 -114,-322 -510,-33 -465,-306 7,-48 48,-101 39,-253 -270,-197 -342,-76 -673,-73zm1370 -2137c-183,20 -615,290 -706,432 433,-393 483,-293 706,-432zm413 2341c-25,-102 -6,-160 9,-276 18,-143 9,-132 103,-210 98,-82 248,-208 315,-305 50,54 145,144 125,250 -10,50 -40,57 -45,151 -5,84 14,368 -129,445 -40,22 -110,19 -162,26 -474,61 288,-430 229,-556 -50,14 -86,116 -205,245 -147,158 -147,210 -240,230zm-1888 27c-55,-106 -62,-512 -40,-654 19,-122 123,-464 167,-546 31,58 -5,30 -18,126l-18 512c0,105 -10,216 -35,313 -40,152 72,188 -56,249zm2331 -1860c51,-50 105,-126 155,-173 39,-38 57,-64 124,-16 198,138 -288,361 -387,575l239 -218c84,-76 127,-147 235,-199 42,46 61,104 77,161l-309 278c-39,36 -295,207 -247,274 15,-78 446,-436 575,-485 27,91 33,118 42,243 -17,80 -212,189 -216,262 122,-53 238,-371 233,-25l-278 82c-88,17 -184,34 -253,74l21 118 -117 127c-79,115 -224,252 -330,328 -62,-37 -35,-54 -90,-89 -44,-28 -20,-3 -64,-28l-39 -39c-64,61 -119,66 -209,65 2,-107 55,-142 169,-251 183,-173 -29,-123 341,-461 53,-48 163,-151 202,-201 -111,48 -372,378 -438,410l-99 -83c-68,-44 -244,-144 -247,-222 0,-4 1,-6 0,-8 -137,73 -225,13 -273,-96 -17,-165 380,-269 655,-201 0,0 54,17 56,17 36,16 15,3 40,23 -80,58 -277,189 -332,253 51,-13 125,-64 164,-92 168,-124 290,-220 495,-258 -41,73 -201,158 -277,242 67,-22 351,-251 411,-301 -3,-53 -18,-39 -29,-86zm-643 262c-46,8 -212,185 -249,232 91,-56 202,-139 249,-232zm-139 234c-30,25 -48,38 -71,74 32,-13 89,-57 92,-62l-21 -12zm662 -105c0,-2 -3,-6 -5,-4l5 4zm-70 478c-78,-1 -70,17 -125,75l-303 299c88,-53 57,-49 109,-92l21 -16c3,-2 7,-5 11,-7l196 -150c26,-20 36,-25 58,-52 37,-46 11,-4 33,-57zm-324 -343c3,-2 7,-6 9,-9l96 -87c19,-13 58,-2 12,-41 -73,67 -217,186 -251,281l134 -144zm1084 -383c226,533 144,523 151,961 -61,-72 -11,-113 -44,-265 -20,-90 -7,-167 -47,-245 -12,-24 -13,-19 -17,-42 -18,-89 -93,-344 -43,-409zm-105 -331l225 122c48,35 138,136 176,148 -58,-126 -389,-288 -499,-390 -49,-47 -451,-269 -611,-299 -246,-46 -16,-47 -411,-48 -472,-2 -436,89 -741,176 -71,21 -247,101 -275,177 5,-4 18,-15 21,-17 2,-2 8,-6 11,-8l235 -125c-19,84 -102,101 -216,201 -82,72 -174,115 -239,197 -71,91 -85,155 -181,258 -56,61 -90,174 -137,264 -64,125 -68,55 -144,292 -270,842 -103,731 -121,1120l-56 40c143,-4 53,63 222,360 72,125 139,274 230,371 181,193 247,259 473,402 73,46 186,27 286,28 -17,60 -20,41 -34,87 52,-6 68,-40 94,-71 134,-6 216,12 334,13 409,5 387,-28 722,-146l176 -95c3,-2 6,-7 9,-9 9,-9 11,-14 30,-27 83,-63 175,-107 323,-223 323,-252 407,-586 429,-984 19,-351 31,-1027 -88,-1329 -14,-36 -24,-84 -43,-120l-193 -348c-2,-5 -5,-11 -7,-17z"/>
   <path class="fil0" d="M18948 3472c69,-1 31,-29 116,-46 86,-18 67,0 142,-38 186,-94 450,-358 497,-536 32,-120 -43,-199 -75,-32 -44,231 -267,507 -502,560 20,-69 6,-40 54,-90 42,-44 121,-116 131,-181 -52,20 -233,307 -363,363z"/>
   <path class="fil0" d="M17798 3381l283 -262 -19 -35c19,-10 38,-13 50,-44 29,-76 -7,-75 -15,-87 -31,53 -21,77 -57,127 -68,97 -233,231 -242,301z"/>
   <path class="fil0" d="M18503 470c60,-22 75,-43 80,-117 -73,5 -87,35 -80,117z"/>
   <path class="fil0" d="M18963 537c-68,-34 -111,27 -80,97l80 -97z"/>
   <path class="fil0" d="M18698 433l-62 -21c3,82 18,80 62,21z"/>
  </g>
  <g id="_1549768296">
   <path class="fil0" d="M8736 13148c53,-32 192,-52 245,-48 111,7 50,6 80,30 -64,48 -153,47 -247,41 -130,-8 -32,7 -78,-23zm-2162 -37c51,-34 138,-21 199,-21 80,-1 158,2 237,1 75,-1 145,0 219,1 107,2 173,-16 223,21 -103,32 -635,53 -787,34 -75,-9 -66,-16 -91,-36zm3718 -87l-40 -71c-5,11 -5,3 -13,31 -14,49 1,-3 -10,45l-203 0c22,-51 32,-47 67,-79l17 -21c-82,29 -96,82 -182,95 -144,22 -607,4 -774,6l52 -55 -426 70c-153,13 -365,6 -524,5 27,-34 10,-26 53,-49 11,-6 38,-10 45,-12l-336 58c-310,53 -1235,1 -1573,9 -148,4 -330,1 -470,40 -25,8 -56,11 -74,16l-59 39c70,24 807,63 931,66 333,9 648,-62 964,-15l1224 28c159,-11 306,-48 473,-28 40,5 114,22 155,7l35 -20c8,-4 217,35 358,8 80,-15 395,-83 470,-128 98,-58 79,-16 146,-25l106 -64c24,-72 3,-32 45,-87 199,-265 195,-339 124,-691 -55,-270 -154,-281 -330,-416 -45,-35 -95,-87 -146,-108 -17,-219 -116,-529 -203,-695 -91,-174 -292,-325 -536,-374 -73,-14 -299,4 -404,12 -147,12 -569,151 -664,241 -74,71 -119,162 -173,244 -3,4 -8,9 -10,12 -2,4 -7,9 -11,13 -424,-4 -605,112 -839,357 -79,83 -136,184 -204,288 -21,31 -28,43 -50,76 -33,49 -19,40 -77,60 -29,-69 -53,-90 -36,-165 -171,-44 -424,-186 -618,-129 -133,40 -413,214 -510,290 -408,317 -373,557 -501,883 -75,191 -32,149 73,311l97 -43c21,1 85,27 131,33 -54,-83 -64,-47 -165,-87 -7,-97 -5,-194 18,-276 18,-70 23,-35 46,-100l13 -142c-49,34 -23,-7 -54,101 -16,55 -14,64 -53,80 28,-107 52,-292 136,-385 97,-109 -14,86 79,-22 58,-68 90,-155 160,-211 78,-62 16,35 189,-137l174 -136c181,-109 442,-74 624,2 384,158 75,366 235,564 -62,-234 -15,-109 2,-308l48 7 26 -118c47,-21 14,2 49,-16 22,-220 236,-435 431,-482 -73,209 -292,359 -329,591 -10,63 -33,196 -7,262 25,-66 -68,-173 169,-530 100,-150 169,-367 397,-351 1,91 -24,76 -72,145 -75,106 -248,360 -184,489l8 -77c4,-16 34,-92 41,-107 55,-128 115,-242 205,-343 49,-56 85,-87 123,-152 119,2 89,33 181,39 -24,-45 -69,-63 -91,-109 53,-16 83,-37 88,31 46,-54 54,-45 214,5 132,42 256,115 356,212 51,50 78,113 127,164l48 -61c-45,-123 -212,-281 -346,-318 4,-5 10,-18 12,-15 2,3 9,-11 11,-15l22 -51c-61,-34 -180,-56 -255,-87 15,-62 14,-57 61,-95 39,-31 64,-38 104,-58l-49 -8c-3,0 -9,-3 -11,-4 -3,0 -8,-3 -12,-5 65,-93 528,-354 667,-264l96 92c133,9 170,75 235,159 155,201 170,467 172,725 34,-45 36,-49 26,-118 -24,-148 -22,-295 -64,-434 -19,-61 -82,-172 -110,-214 -31,-48 -87,-65 -121,-119 -70,-111 112,-26 139,-9 152,96 234,232 324,388 87,151 250,523 157,760 48,-24 46,-90 51,-144 67,6 92,29 147,51 6,109 -7,175 -41,271 -18,51 -18,19 -33,78 43,-14 26,20 54,-52 28,-76 22,-188 72,-261 88,46 207,107 257,184 62,96 155,413 -4,492l-158 80c-75,45 -202,160 -277,176 47,-91 172,-143 211,-245 24,-63 30,-73 -37,-71 57,124 -148,216 -183,321l-92 96c37,16 109,-54 142,-78l267 -189c74,-46 80,-36 168,-72 -5,113 -126,344 -229,396 -22,11 -66,20 -85,24l-90 23zm310 -77c15,-82 38,-80 73,-145 99,-183 129,-441 162,-494 10,219 -80,590 -235,639zm-2464 -1604c-40,54 -62,55 -105,2 4,-4 37,-17 55,-18 80,-5 36,7 50,16zm2062 365c-16,-144 -15,-187 -58,-309 -34,-97 -257,-518 -333,-575 -53,-41 -52,-26 -82,-82 103,5 199,72 255,127 183,180 244,301 243,529 -1,295 65,204 126,179 -7,89 13,44 -50,81 16,48 20,19 52,79l-153 -29z"/>
   <path class="fil0" d="M9153 12353c-67,0 -57,14 -100,48 -39,30 -71,47 -107,75l-650 405c122,19 233,-158 356,-152 -9,69 5,29 -106,124l-10 10c57,-5 72,-37 110,-67 120,-96 723,-380 930,-539 -89,10 -155,76 -226,114l-682 357c-4,1 -11,1 -16,1 2,-4 6,-15 8,-12l49 -43c197,-160 276,-190 444,-321z"/>
   <path class="fil0" d="M6712 11866c-22,-316 -864,631 -651,1014 86,155 -24,-83 25,-254 51,-178 48,-170 141,-333 76,-134 203,-292 322,-391 62,-52 77,-56 163,-36z"/>
   <path class="fil0" d="M9610 12413c28,13 11,-12 27,44 -206,140 -367,210 -560,314 -34,18 -74,48 -112,72 -64,41 -140,102 -211,129 47,-6 208,-102 265,-133 50,-27 80,-52 122,-78 128,-76 254,-116 415,-223 76,-51 215,-109 216,-200 -67,19 -101,46 -162,75z"/>
   <path class="fil0" d="M8008 12170c25,-22 71,-157 100,-203 44,-69 93,-124 141,-204l189 -304c58,-104 47,-77 31,-116l-245 409c-41,71 -91,125 -130,198 -36,68 -55,149 -86,220z"/>
   <path class="fil0" d="M6433 12832c58,-112 112,-223 176,-339l194 -324c-128,120 -211,319 -294,475 -27,51 -69,131 -76,188z"/>
   <path class="fil0" d="M7658 12957c69,-31 41,-274 35,-367 -18,135 -53,208 -35,367z"/>
   <path class="fil0" d="M7783 12462c6,-77 0,-62 23,-123 9,-24 35,-72 -24,-58 -58,13 2,137 1,181z"/>
   <path class="fil0" d="M7685 12561c50,-31 50,-7 16,-64 -36,28 -46,13 -16,64z"/>
  </g>
  <g id="_1537418320">
   <path class="fil0" d="M18552 15349c-23,-62 -69,-70 -106,-127 -31,-48 -38,-91 -76,-142l-75 17c-42,116 20,145 -20,270l-272 704c22,-102 240,-749 203,-824 -64,29 -40,69 -76,139 -32,65 -45,59 -68,149l-256 841c-32,84 -25,64 -33,164l-346 970c-147,333 -44,234 -46,306 -34,86 -40,177 -104,236 15,-154 70,-156 72,-273 -40,54 -103,242 -128,324 -61,201 -82,97 -134,287 40,25 981,-27 1054,36l-81 1468c6,91 21,424 43,467 73,-21 71,-91 77,-176l28 -765c12,-156 38,-310 46,-474 30,-634 -37,-476 353,-488 114,-4 193,-11 310,-6 246,12 302,-65 549,-34 6,-164 -48,-215 -55,-364 -7,-124 -4,-278 -36,-389 -64,-224 -108,-443 -184,-654l-192 -645c-32,-102 -62,-222 -104,-317l-119 -204c-15,-23 2,0 -22,-31 -2,-2 -9,-4 -10,-11 -2,-7 -7,-7 -10,-11 55,180 104,220 19,297l-109 -256c-44,-100 -148,-350 -142,-439 58,43 128,203 158,290 5,-7 61,21 -21,-136l-13 -22c-40,-68 -44,-99 -74,-177zm256 2034c-57,25 -12,1 -57,65 -19,28 -39,54 -62,84 -33,42 -85,104 -125,148 -32,35 -47,32 -69,59 -29,35 -11,39 -60,87l-130 133c-3,2 -9,7 -13,10 -3,-158 35,-853 18,-901l-64 -84c-50,81 48,112 -29,240 -55,91 -23,221 -32,333 -128,-88 -220,-210 -343,-308 -7,75 -11,29 -8,101l46 33c14,10 46,32 52,38 36,31 60,61 90,94 92,107 6,88 124,111 61,12 31,-4 49,34 50,104 -2,394 -13,502 -5,55 13,76 -4,155 -108,23 -797,-14 -940,-28 22,-60 20,-108 59,-162 15,-21 18,-22 30,-41 108,-156 124,-352 193,-536 35,-95 13,-68 78,-51 7,-145 62,-311 103,-442l385 -1002c32,-64 78,-112 118,-172 -31,-114 -3,20 -25,-38 -19,-50 153,-449 173,-471 138,156 -112,303 -145,473 91,-45 134,-204 197,-241l46 -2c112,91 -399,626 -446,828l74 -58c91,-158 272,-493 437,-544 13,175 -61,270 -164,398 -35,45 -78,127 -105,170l-32 58c-32,49 -63,70 -70,123 42,-9 35,-10 58,-44 18,-26 0,-5 19,-35l298 -467c21,40 6,36 56,56l13 -168c79,95 77,37 110,182 36,159 4,106 -62,193l-88 164c-3,5 -13,17 -16,22l94 -61c44,55 71,177 99,241 93,219 235,451 307,677 72,226 332,817 336,983 -110,12 -71,27 -105,-48l-54 69c-130,12 -848,37 -907,0 -20,-18 -26,-109 -20,-165 3,-26 -2,-50 18,-55 27,-7 10,24 54,41 42,-66 6,-110 76,-197 3,-3 6,-7 9,-10l139 -153c64,-64 68,-40 140,-79 -14,-8 9,-46 -90,16 44,-82 300,-257 180,-358zm-17 -665c-71,-164 -158,-351 -69,-446 55,20 76,102 101,180 24,73 43,144 63,212l125 446c-54,-36 -33,-19 -68,-104 -39,-98 -102,-171 -152,-288zm120 -174c-91,-279 -158,-340 -94,-450l50 42c26,36 491,1582 487,1771 -51,-42 -68,-145 -90,-220l-151 -454c-21,-88 -34,-145 -60,-228 -51,-159 -92,-309 -142,-461z"/>
   <path class="fil0" d="M17869 19154c75,-100 60,-291 127,-416 36,-67 58,-263 -40,-296l-87 712z"/>
   <path class="fil0" d="M18542 17152c73,-40 63,-74 138,-101l-127 233c5,-1 11,-8 13,-5l107 -109c26,-48 5,-42 50,-75l-52 -73c-2,-2 -6,-7 -9,-10 -64,25 -111,79 -120,140z"/>
   <path class="fil0" d="M17407 18197c71,-25 82,-111 133,-172 88,-102 151,-177 223,-314 -62,13 -59,37 -96,93l-260 393z"/>
   <path class="fil0" d="M17841 19294c-15,21 -10,-4 -18,37 -9,46 -2,236 18,264l21 -248c-9,-85 -4,-28 -21,-53z"/>
   <polygon class="fil0" points="18818,17806 18893,17736 18836,17711 "/>
   <path class="fil0" d="M17592 18131c36,-14 157,-202 168,-233l-168 233z"/>
   <path class="fil0" d="M18668 17976l52 -6c-24,-53 30,-35 -51,-39l-1 45z"/>
  </g>
  <g id="_1537419304">
   <path class="fil0" d="M8294 19785c40,35 22,41 73,43 48,-71 21,-108 11,-188 381,27 476,808 -146,675 -288,-62 -425,-524 -84,-618 209,-58 181,-2 146,88zm-1882 -2951l70 3 -59 85 -11 -88zm197 1030c17,-25 5,16 12,-36l-9 -90c-30,-194 -86,-789 -75,-908l166 0c-16,65 -41,65 -21,111 25,-31 49,-79 69,-112 236,-6 521,-61 884,-60l50 106c22,-43 0,-24 16,-77l20 -45c203,-11 115,44 216,127 -7,-66 -23,-53 -37,-125l215 -6 29 98c32,-62 -7,-66 52,-94 196,2 176,-52 164,224 -4,99 -32,249 -45,351l-107 516c-15,54 -32,83 10,103l166 -738c8,-61 2,-112 10,-173 24,-183 -11,-269 57,-305 48,24 52,-18 44,209 -7,247 -32,351 -72,607 -29,193 -176,680 -82,741 1,-2 45,-328 56,-377 28,-130 46,-229 70,-349 23,-121 42,-216 64,-358 11,-73 20,-306 74,-365 64,202 -108,1049 -96,1324 6,123 -32,220 -37,345 -5,137 -13,215 -29,334 -3,24 -55,643 -96,657l-58 18c-91,25 -61,18 -145,71 -353,220 -272,342 -256,582 -174,-3 -288,56 -441,74 -153,18 -329,28 -488,16l-40 -56c-5,60 6,20 -18,55 -92,-11 -73,-22 -79,-126l-49 -538c-75,19 -44,50 -35,119l69 524c-71,-2 -61,-14 -123,-35 -12,-147 -9,-298 -21,-437 -12,-153 28,-314 -92,-346 -26,75 114,558 56,726 -2,5 -7,18 -8,16 -2,-3 -6,10 -10,15 -92,-3 -51,19 -87,-51 -28,-53 -65,-234 -22,-321 37,56 6,64 54,122 35,-56 -87,-597 -103,-721 -35,-276 -152,-1262 -154,-1518 -2,-130 -42,-739 -6,-808 77,24 35,-70 75,199 50,340 101,1262 207,1465 -12,-131 -41,-254 -56,-384l-96 -1110c3,-36 4,-24 11,-48l13 -28c61,18 16,-12 43,40l25 175c25,191 41,563 96,675zm-36 680c10,54 24,81 54,121l-54 -121zm-170 -1780c35,-80 38,-84 154,-79l-33 80 -121 -1zm52 -123c21,-82 42,-89 79,-156 41,-75 24,-88 135,-92 2,139 -37,161 -87,245l-127 3zm-146 -21c14,-58 83,-211 163,-199 10,27 14,-33 11,44l-5 29c-35,116 -105,121 -169,126zm-178 31c13,-66 40,-103 72,-152 52,-78 30,-75 143,-79 -23,88 -69,115 -101,209l-114 22zm1828 -291c203,52 607,-69 781,234 -81,37 -142,-39 -290,-51 -111,-9 -233,30 -327,50l-25 -50c-47,-112 -7,-65 -66,-92 -27,73 25,75 38,161 -4,3 -10,6 -13,8l-205 42 -30 -128c-10,-57 -10,-99 -24,-143 -19,24 -24,-31 -26,75 -1,82 41,124 36,217l-120 -1c-7,-90 10,-74 -21,-125l-13 25c-14,65 38,102 -81,118 -61,8 -191,19 -252,20 -185,3 -308,39 -493,41l-17 -77 -66 88 -168 1c1,-28 -7,-8 5,-43 33,-95 173,-78 182,-108 1,-4 6,-5 9,-7l-116 5c20,-79 73,-168 108,-231l175 4 -15 152c3,-2 8,-5 10,-8l48 -98c6,-24 4,-23 9,-46 185,-6 338,1 512,-17 121,-12 348,-43 455,-16zm-1077 195c-23,46 -42,79 -54,130 3,-3 8,-7 10,-9l20 -16c11,-12 17,-15 26,-29 34,-59 -2,-76 -2,-76zm452 -271c3,-87 77,-63 169,-55l145 17c37,8 27,9 45,20 -18,12 -11,13 -45,23 -15,4 -34,4 -50,7 -77,10 -197,33 -264,-12zm1389 399c90,-44 100,0 167,22l51 -38c-79,-146 -199,-188 -274,-363 -148,1 -177,-16 -293,-31 -282,-38 -154,-38 -242,-64 -43,-12 -531,-25 -611,-28 -328,-13 -325,48 -422,64 -220,37 -489,96 -690,96 -99,0 -184,-42 -243,29 -30,32 -14,86 -135,247 -15,20 -34,36 -43,47 -30,37 -53,121 -113,136 84,-2 14,-29 123,-2 63,17 107,23 130,51 45,96 79,490 86,639 -21,17 -9,9 -40,25 -3,2 -25,9 -30,11 5,113 53,253 66,382 12,125 -2,297 38,401 38,100 83,646 90,785 18,348 52,650 137,974 3,9 26,88 26,89 18,119 -11,17 -9,88 3,76 94,29 148,62 47,28 3,103 43,180l0 -171c80,-7 127,16 202,28 110,18 696,-22 836,-38 100,-11 34,-47 166,-14 168,42 186,82 325,117 125,31 270,3 372,-53 101,-55 138,-150 176,-276 88,-295 -165,-438 -333,-524 31,-169 66,-352 112,-517l-27 -13c-1,-4 -6,-3 -9,-5l162 -1789c11,-101 19,-194 32,-297l26 -250z"/>
   <path class="fil0" d="M7557 19883c12,-22 10,-30 21,-55 56,-123 143,-215 255,-296 310,-226 395,-93 447,-81l20 -31c-140,-256 -828,265 -743,463z"/>
   <path class="fil0" d="M7105 18618c22,9 27,-7 47,25 33,51 -38,30 41,59 52,-23 11,-38 68,-107 19,-22 78,-71 80,-91 10,-97 -111,65 -118,72 -44,48 -40,35 -67,43 2,-138 159,-195 153,-299 -74,4 -203,226 -204,298z"/>
   <path class="fil0" d="M8441 19922c-75,-34 -79,-27 -145,18 -133,92 -51,196 46,139l90 -112c1,-2 8,-41 9,-45z"/>
   <path class="fil0" d="M8131 17647c27,-83 100,-604 60,-682 -66,30 -40,141 -45,322 -4,130 -21,228 -15,360z"/>
   <path class="fil0" d="M6766 17772l-30 -338c-8,-168 24,-347 -54,-375 -18,45 41,568 84,713z"/>
   <path class="fil0" d="M7470 19578c220,-278 233,-265 448,-256l-69 -61c-157,5 -351,185 -379,317z"/>
   <path class="fil0" d="M7198 18872c56,-19 51,-35 91,-84 41,-52 50,-53 84,-114 -67,17 -151,127 -175,198z"/>
   <path class="fil0" d="M7841 17358c51,-14 52,1 53,-63l-55 -1 2 64z"/>
   <path class="fil0" d="M7815 17503c48,-15 16,8 46,-31 -31,-24 -4,-7 -48,-21l2 52z"/>
  </g>
  <g id="_1537421464">
   <path class="fil0" d="M14519 3582c29,-72 85,-120 129,-191l115 -203c7,195 -132,368 -244,394zm-334 -328c-62,81 -134,141 -205,216 -118,123 -257,223 -438,380 -392,49 -506,-86 -746,-224 -111,-63 -179,-143 -245,-231 -92,-125 -135,-117 -144,-330 -7,-195 -3,-275 30,-440 50,-258 80,-527 218,-735l185 -282c2,-8 9,-8 13,-12l-13 88c69,-2 30,6 42,-40l89 -203c19,-34 26,-39 45,-80 59,-123 123,-259 210,-360 44,-52 24,-23 55,-86 61,-128 157,-247 243,-361l104 -135c25,-20 53,-38 74,-54 -18,50 -75,128 -111,181 -120,177 -218,363 -312,561l-348 796c36,25 39,16 85,-6 12,-242 129,-407 219,-610 79,-177 322,-712 486,-834 22,42 30,-62 19,61 -5,45 -673,1208 -585,1378 45,-40 33,-111 60,-187 89,-252 446,-1048 560,-1138l53 111c197,533 277,665 525,1171 70,142 113,274 180,423 71,158 131,242 178,439 90,371 -87,670 -298,918 -73,88 -72,78 -193,120 -106,37 -99,53 -247,49 18,-29 3,-13 34,-47l491 -601c15,-36 26,-56 39,-89 48,-127 163,-546 -23,-570 4,133 136,297 -83,720 -20,39 -80,148 -107,183 -37,45 -49,46 -80,84 -250,309 -331,376 -674,372l50 -49c3,-2 8,-5 11,-7l205 -160c5,-3 18,-11 23,-14l195 -185c3,-3 7,-7 10,-9l55 -55c2,-3 6,-6 9,-9l34 -38c54,-72 186,-222 189,-305l-166 235zm-774 687c342,0 632,-79 728,-74 -33,43 -99,101 -152,120 -120,42 -37,-18 -75,34 27,-7 40,-6 62,-12l29 -7c48,-16 19,-7 36,-18l20 -16c87,-65 77,-38 128,-77 91,-71 -9,-27 172,-115 157,-77 293,-168 388,-323 164,-268 144,-159 118,-535 -13,-198 -134,-271 -133,-583 -71,-41 -48,-9 -85,-91 -67,-149 -291,-560 -312,-656 -29,-141 -232,-342 -373,-793 -20,-63 -22,-85 -34,-152 -23,-138 -24,-37 -70,-124 -84,-160 35,-166 38,-292 -60,4 -47,11 -111,20 8,-96 24,-78 51,-144 -38,-28 -38,-10 -103,-39 0,0 -12,-8 -31,-16 -76,84 -84,138 -154,236 -298,422 -370,600 -622,999 -110,173 -538,913 -576,1063 -85,332 -162,730 -18,1034 57,122 296,316 432,384 198,99 364,177 647,177z"/>
   <path class="fil0" d="M13257 3216c-41,17 -58,60 -128,97 -422,217 -456,-597 -362,-728 16,-21 139,-70 60,-149 -87,69 -134,204 -138,318 -33,883 531,640 568,462z"/>
   <path class="fil0" d="M13301 2131c38,-57 79,-214 119,-297 46,-95 79,-176 123,-276 55,-124 198,-469 188,-618 -82,91 -45,193 -94,307 -41,99 -83,194 -121,298l-194 443c-7,17 -26,77 -28,84l7 59z"/>
   <path class="fil0" d="M14072 2674c57,-55 113,-213 141,-317 33,-125 107,-320 -10,-324 5,447 -113,537 -131,641z"/>
   <path class="fil0" d="M13604 2164c15,-36 24,-87 38,-124 12,-35 23,-76 36,-110l161 -456c20,-69 71,-162 1,-187 -17,227 -253,780 -236,877z"/>
   <path class="fil0" d="M13806 2317c-4,109 12,232 89,264 -14,-79 -34,-109 -38,-211 -5,-129 6,-111 -51,-53z"/>
   <path class="fil0" d="M13078 2897c-6,-65 -48,-120 -84,-155 -29,37 -3,45 23,77 27,34 32,51 61,78z"/>
   <path class="fil0" d="M13870 1985c33,-18 28,23 44,-43 -61,3 -35,-19 -44,43z"/>
  </g>
  <g id="_1537422664">
   <path class="fil0" d="M11923 23368c105,-2 192,-39 316,-54 501,-59 551,-32 1051,-15 15,348 -79,469 -188,715 -135,304 -317,500 -338,538 155,-62 595,-902 603,-1253 164,-2 182,2 153,204 -26,184 -239,553 -292,695 138,-150 262,-532 354,-741 42,43 25,-15 39,84 13,94 -102,424 -138,510 3,-2 8,-6 10,-8l19 -18c47,-62 145,-402 151,-466 7,-63 -13,-150 23,-202 42,81 11,98 2,188 -8,80 14,124 17,197 18,379 -225,692 -527,636 -72,-13 -36,-11 -49,-25 -66,85 -17,24 -117,65 -11,81 -36,126 -45,186 -11,68 -3,148 -7,219 -167,36 -190,79 -261,-19 -92,26 4,23 -91,38 -31,5 -96,-2 -130,-3 -8,-305 -32,-296 -297,-340 -567,-94 -571,-315 -521,-679 53,-379 -34,-458 200,-443 -5,128 -94,576 -54,636 24,-34 53,-258 65,-313 24,-117 50,-206 52,-332zm1214 975c4,-2 8,-7 9,-9 2,-2 7,-7 9,-9l-18 18zm343 -293l0 0zm-343 -800c-62,1 -166,13 -218,-19 68,-78 380,-47 454,0l-236 19zm146 -146c26,-105 131,-287 31,-430l-76 57c-21,-45 -13,-56 -65,-70 -50,71 -39,342 -81,435 -115,40 -310,11 -448,17 -136,6 -243,68 -384,64l-19 -33c-26,-65 -13,-51 -4,-100 1,-5 3,-10 4,-15 1,-6 2,-10 2,-16 1,-7 3,-29 4,-36 15,-191 3,-206 -122,-247 -52,78 -48,381 -30,463 -190,14 -423,-12 -430,-12 -28,2 -33,11 -40,14l-108 510c-34,140 -46,107 -6,241 83,276 40,539 604,634 171,28 269,22 245,203 -11,79 -72,77 1,227 31,-10 20,-9 42,-33 9,-10 24,-28 33,-41l173 11c-4,87 -20,187 -46,263 -70,211 -73,573 -75,810 -3,454 208,541 613,559 284,13 297,-6 453,-141 64,-55 60,-119 95,-212 164,-435 -19,-1080 253,-1223 12,110 -24,311 37,375 32,-81 19,-299 68,-424l458 10 19 -55c-97,-141 -637,-81 -795,-70 2,105 51,15 -2,200 -288,1009 16,1424 -458,1441 -144,4 -378,-21 -468,-82 -131,-88 -94,-232 -105,-432l20 -402c15,-83 13,-44 32,-97 51,-146 38,-318 38,-492 136,3 174,-26 297,-37 65,-114 46,-105 52,-275l88 -77c-21,-13 -45,-19 -48,-20 -40,-24 -17,5 -36,-40 67,-53 106,-28 204,-59 538,-170 530,-691 467,-1214 -135,-82 -89,-35 -234,-93 -74,-29 -181,-24 -253,-56z"/>
   <path class="fil0" d="M11897 24015c24,-46 42,-242 60,-322 16,-77 82,-230 49,-291 -48,19 -37,59 -48,122 -11,57 -25,104 -37,164 -18,86 -57,193 -39,289 7,35 5,20 15,38z"/>
   <path class="fil0" d="M12043 23958c45,-24 35,-50 44,-111l48 -285c7,-49 41,-99 -19,-122l-77 463c-7,54 -17,14 4,55z"/>
   <path class="fil0" d="M12797 24322l336 -593c-94,17 -125,161 -181,281 -56,118 -102,194 -155,312z"/>
   <path class="fil0" d="M12681 23628c45,-75 24,-67 -18,-85 -10,14 -33,-29 -12,45 4,15 23,33 30,40z"/>
   <path class="fil0" d="M12650 23450c37,24 20,25 67,0 -33,-20 40,-20 -35,-14 -61,5 -6,-3 -32,14z"/>
  </g>
 </g>
</svg>
